<?xml version="1.0" encoding="utf-8"?>
<!-- Generator: Adobe Illustrator 24.2.1, SVG Export Plug-In . SVG Version: 6.00 Build 0)  -->
<svg version="1.1" id="Camada_1" xmlns="http://www.w3.org/2000/svg" xmlns:xlink="http://www.w3.org/1999/xlink" x="0px" y="0px"
	 viewBox="0 0 204 204" style="enable-background:new 0 0 204 204;" xml:space="preserve">
<style type="text/css">
	.st0{display:none;stroke:#FFFFFF;stroke-miterlimit:10;}
	.st1{fill:#FFFFFF;}
	.st2{opacity:0.9;}
</style>
<rect x="96.1" y="96.4" transform="matrix(0.9997 2.403803e-02 -2.403803e-02 0.9997 2.4634 -2.3986)" class="st0" width="9.8" height="9.8"/>
<g>
	<g>
		<polygon class="st1" points="103.4,114.6 90.9,114.6 84.9,129.4 84.9,129.4 73.9,129.4 73.9,129.4 103.4,63.1 103.4,63.2 
			103.4,63.2 103.4,51.9 103.4,51.9 56.1,68.8 63.3,131.3 103.4,153.5 103.4,153.5 		"/>
		<polygon class="st1" points="94.8,105.4 103.4,105.4 103.4,105.4 103.4,84.7 		"/>
	</g>
	<g class="st2">
		<polygon class="st1" points="103.4,114.6 116,114.6 121.9,129.4 121.9,129.4 133,129.4 133,129.4 103.4,63.1 103.4,63.2 
			103.4,63.2 103.4,51.9 103.4,51.9 150.7,68.8 143.5,131.3 103.4,153.5 103.4,153.5 		"/>
		<polygon class="st1" points="112.1,105.4 103.4,105.4 103.4,105.4 103.4,84.7 		"/>
	</g>
</g>
</svg>
