<?xml version="1.0" encoding="utf-8"?>
<!-- Generator: Adobe Illustrator 24.2.1, SVG Export Plug-In . SVG Version: 6.00 Build 0)  -->
<svg version="1.1" id="Camada_1" xmlns="http://www.w3.org/2000/svg" xmlns:xlink="http://www.w3.org/1999/xlink" x="0px" y="0px"
	 viewBox="0 0 204 204" style="enable-background:new 0 0 204 204;" xml:space="preserve">
<style type="text/css">
	.st0{display:none;stroke:#FFFFFF;stroke-miterlimit:10;}
	.st1{fill-rule:evenodd;clip-rule:evenodd;fill:#364548;}
	.st2{fill-rule:evenodd;clip-rule:evenodd;fill:#22A0C8;}
	.st3{fill-rule:evenodd;clip-rule:evenodd;fill:#37B1D9;}
	.st4{fill-rule:evenodd;clip-rule:evenodd;fill:#1B81A5;}
	.st5{fill-rule:evenodd;clip-rule:evenodd;fill:#1D91B4;}
	.st6{fill-rule:evenodd;clip-rule:evenodd;fill:#23A3C2;}
	.st7{fill-rule:evenodd;clip-rule:evenodd;fill:#34BBDE;}
	.st8{fill-rule:evenodd;clip-rule:evenodd;fill:#D3ECEC;}
	.st9{fill-rule:evenodd;clip-rule:evenodd;fill:#BDD9D7;}
</style>
<rect x="96.1" y="96.4" transform="matrix(0.9997 2.403803e-02 -2.403803e-02 0.9997 2.4634 -2.3986)" class="st0" width="9.8" height="9.8"/>
<g>
	<path class="st1" d="M117.4,87.4h13.9v14.3h7c3.3,0,6.6-0.6,9.7-1.6c1.5-0.5,3.2-1.2,4.7-2.1c-2-2.6-3-5.8-3.3-9
		c-0.4-4.3,0.5-10,3.4-13.4l1.5-1.7l1.7,1.4c4.4,3.5,8.1,8.5,8.7,14.1c5.3-1.6,11.5-1.2,16.2,1.5l1.9,1.1l-1,2
		c-3.9,7.7-12.2,10.1-20.3,9.7c-12.1,30.1-38.3,44.3-70.2,44.3c-16.5,0-31.6-6.2-40.2-20.8l-0.1-0.2l-1.3-2.5
		c-2.9-6.4-3.9-13.5-3.2-20.5l0.2-2.1h11.9V87.4h13.9V73.4h27.9V59.5h16.7V87.4"/>
	<path class="st2" d="M162.6,92.6c0.9-7.3-4.5-13-7.9-15.7c-3.9,4.5-4.5,16.3,1.6,21.2c-3.4,3-10.6,5.8-17.9,5.8H49.1
		c-0.7,7.7,0.6,14.7,3.7,20.8l1,1.9c0.6,1.1,1.3,2.1,2.1,3.2C59.6,130,63,130,66,130h0c6.1-0.1,11.1-0.9,14.8-2.2
		c0.6-0.2,1.2,0.1,1.3,0.7c0.2,0.5-0.1,1.1-0.6,1.3c-0.5,0.2-1,0.3-1.6,0.5h0c-3,0.9-6.1,1.4-10.2,1.7c0.2,0-0.3,0-0.3,0
		c-0.1,0-0.3,0-0.5,0c-1.6,0.1-3.4,0.1-5.1,0.1c-1.9,0-3.9,0-6-0.1l-0.1,0c7.4,8.4,19.1,13.4,33.7,13.4c30.9,0,57.1-13.7,68.7-44.4
		c8.2,0.8,16.1-1.3,19.7-8.3C174.2,89.5,166.8,90.5,162.6,92.6"/>
	<path class="st3" d="M162.6,92.6c0.9-7.3-4.5-13-7.9-15.7c-3.9,4.5-4.5,16.3,1.6,21.2c-3.4,3-10.6,5.8-17.9,5.8H54.4
		c-0.4,11.7,4,20.6,11.7,26h0c6.1-0.1,11.1-0.9,14.8-2.2c0.6-0.2,1.2,0.1,1.3,0.7c0.2,0.5-0.1,1.1-0.6,1.3c-0.5,0.2-1,0.3-1.6,0.5h0
		c-3,0.9-6.4,1.5-10.5,1.7c0,0-0.1-0.1-0.1-0.1c10.5,5.4,25.7,5.4,43.2-1.3c19.6-7.5,37.8-21.9,50.5-38.3
		C163,92.5,162.8,92.6,162.6,92.6"/>
	<path class="st4" d="M49.2,113.3c0.5,4.1,1.8,7.9,3.5,11.4l1,1.9c0.6,1.1,1.3,2.1,2.1,3.2c3.7,0.2,7.1,0.3,10.2,0.2
		c6.1-0.1,11.1-0.9,14.8-2.2c0.6-0.2,1.2,0.1,1.3,0.7c0.2,0.5-0.1,1.1-0.6,1.3c-0.5,0.2-1,0.3-1.6,0.5h0c-3,0.9-6.4,1.5-10.5,1.7
		c-0.1,0-0.4,0-0.5,0c-1.6,0.1-3.3,0.1-5.1,0.1c-2,0-4.1,0-6.1-0.1c7.4,8.4,19.2,13.4,33.7,13.4c26.4,0,49.4-10,62.8-32.2
		L49.2,113.3"/>
	<path class="st5" d="M55.2,113.3c1.6,7.2,5.4,12.9,10.9,16.7c6.1-0.1,11.1-0.9,14.8-2.2c0.6-0.2,1.2,0.1,1.3,0.7
		c0.2,0.5-0.1,1.1-0.6,1.3c-0.5,0.2-1,0.3-1.6,0.5h0c-3,0.9-6.5,1.5-10.6,1.7c10.5,5.4,25.7,5.3,43.2-1.4
		c10.6-4.1,20.7-10.1,29.9-17.4L55.2,113.3"/>
	<path class="st6" d="M61.2,89.7h12.1v12.1H61.2V89.7z M62.2,90.7h1v10.1h-1L62.2,90.7L62.2,90.7z M64,90.7h1v10.1h-1V90.7z
		 M65.8,90.7h1v10.1h-1V90.7z M67.7,90.7h1v10.1h-1V90.7z M69.5,90.7h1v10.1h-1L69.5,90.7L69.5,90.7z M71.3,90.7h1v10.1h-1
		L71.3,90.7L71.3,90.7z M75.1,75.8h12.1v12.1H75.1V75.8z M76.1,76.8h1v10.1h-1V76.8L76.1,76.8z M77.9,76.8h1v10.1h-1L77.9,76.8
		L77.9,76.8z M79.8,76.8h1v10.1h-1L79.8,76.8L79.8,76.8z M81.6,76.8h1v10.1h-1V76.8L81.6,76.8z M83.4,76.8h1v10.1h-1V76.8L83.4,76.8
		z M85.3,76.8h1v10.1h-1V76.8L85.3,76.8z"/>
	<path class="st7" d="M75.1,89.7h12.1v12.1H75.1V89.7z M76.1,90.7h1v10.1h-1V90.7z M77.9,90.7h1v10.1h-1L77.9,90.7L77.9,90.7z
		 M79.8,90.7h1v10.1h-1V90.7z M81.6,90.7h1v10.1h-1V90.7z M83.4,90.7h1v10.1h-1V90.7z M85.3,90.7h1v10.1h-1V90.7z"/>
	<path class="st6" d="M89.1,89.7h12.1v12.1H89.1V89.7z M90.1,90.7h1v10.1h-1V90.7z M91.9,90.7h1v10.1h-1V90.7z M93.7,90.7h1v10.1h-1
		V90.7z M95.5,90.7h1v10.1h-1L95.5,90.7L95.5,90.7z M97.4,90.7h1v10.1h-1V90.7z M99.2,90.7h1v10.1h-1V90.7z"/>
	<path class="st7" d="M89.1,75.8h12.1v12.1H89.1V75.8z M90.1,76.8h1v10.1h-1V76.8L90.1,76.8z M91.9,76.8h1v10.1h-1V76.8L91.9,76.8z
		 M93.7,76.8h1v10.1h-1V76.8L93.7,76.8z M95.5,76.8h1v10.1h-1L95.5,76.8L95.5,76.8z M97.4,76.8h1v10.1h-1V76.8L97.4,76.8z
		 M99.2,76.8h1v10.1h-1V76.8L99.2,76.8z M103,89.7h12.1v12.1H103L103,89.7L103,89.7z M104,90.7h1v10.1h-1L104,90.7L104,90.7z
		 M105.8,90.7h1v10.1h-1V90.7z M107.6,90.7h1v10.1h-1V90.7z M109.5,90.7h1v10.1h-1V90.7z M111.3,90.7h1v10.1h-1V90.7z M113.1,90.7h1
		v10.1h-1V90.7z"/>
	<path class="st6" d="M103,75.8h12.1v12.1H103V75.8z M104,76.8h1v10.1h-1V76.8L104,76.8z M105.8,76.8h1v10.1h-1V76.8L105.8,76.8z
		 M107.6,76.8h1v10.1h-1V76.8L107.6,76.8z M109.5,76.8h1v10.1h-1V76.8L109.5,76.8z M111.3,76.8h1v10.1h-1V76.8L111.3,76.8z
		 M113.1,76.8h1v10.1h-1V76.8L113.1,76.8z"/>
	<path class="st7" d="M103,61.8h12.1v12.1H103V61.8z M104,62.8h1v10.1h-1V62.8L104,62.8z M105.8,62.8h1v10.1h-1V62.8L105.8,62.8z
		 M107.6,62.8h1v10.1h-1V62.8L107.6,62.8z M109.5,62.8h1v10.1h-1V62.8L109.5,62.8z M111.3,62.8h1v10.1h-1V62.8L111.3,62.8z
		 M113.1,62.8h1v10.1h-1V62.8L113.1,62.8z"/>
	<path class="st6" d="M117,89.7H129v12.1H117V89.7z M118,90.7h1v10.1h-1L118,90.7L118,90.7z M119.8,90.7h1v10.1h-1L119.8,90.7
		L119.8,90.7z M121.6,90.7h1v10.1h-1V90.7z M123.4,90.7h1v10.1h-1V90.7z M125.2,90.7h1v10.1h-1V90.7z M127.1,90.7h1v10.1h-1V90.7z"
		/>
	<path class="st8" d="M86.5,121.4c1.8,0,3.4,1.4,3.4,3.3c0,1.8-1.4,3.4-3.3,3.4c0,0-0.1,0-0.1,0c-1.8,0-3.3-1.5-3.3-3.4
		C83.2,122.9,84.7,121.4,86.5,121.4"/>
	<path class="st1" d="M86.5,122.3c0.3,0,0.6,0.1,0.9,0.2c-0.5,0.3-0.6,0.9-0.4,1.3c0.2,0.3,0.5,0.5,0.8,0.5c0.4,0,0.7-0.2,0.9-0.5
		c0.5,1.2-0.1,2.6-1.3,3.1c-1.2,0.5-2.6-0.1-3.1-1.3c-0.5-1.2,0.1-2.6,1.3-3.1C85.8,122.4,86.1,122.3,86.5,122.3 M27.5,114.5h155.1
		c-3.4-0.9-10.7-2-9.5-6.4c-6.1,7.1-20.9,5-24.7,1.5c-4.2,6-28.4,3.7-30.1-1c-5.2,6.1-21.4,6.1-26.6,0c-1.7,4.7-25.9,7-30.1,1
		c-3.7,3.5-18.5,5.6-24.7-1.5C38.2,112.4,30.9,113.6,27.5,114.5"/>
	<path class="st9" d="M95.3,145.4c-8.3-3.9-12.8-9.2-15.3-15.1c-3.1,0.9-6.8,1.4-11,1.7c-1.6,0.1-3.3,0.1-5.1,0.1
		c-2.1,0-4.2-0.1-6.5-0.2c7.6,7.6,16.9,13.4,34.1,13.5C92.8,145.5,94.1,145.4,95.3,145.4"/>
	<path class="st8" d="M83.1,135.7c-1.1-1.6-2.3-3.5-3.1-5.4c-3.1,0.9-6.8,1.4-11,1.7C71.9,133.6,76.1,135.1,83.1,135.7"/>
</g>
</svg>
