<?xml version="1.0" encoding="utf-8"?>
<!-- Generator: Adobe Illustrator 24.2.1, SVG Export Plug-In . SVG Version: 6.00 Build 0)  -->
<svg version="1.1" id="Camada_1" xmlns="http://www.w3.org/2000/svg" xmlns:xlink="http://www.w3.org/1999/xlink" x="0px" y="0px"
	 viewBox="0 0 204 204" style="enable-background:new 0 0 204 204;" xml:space="preserve">
<style type="text/css">
	.st0{display:none;stroke:#FFFFFF;stroke-miterlimit:10;}
	.st1{fill:#F03C2E;}
</style>
<rect x="96.1" y="96.4" transform="matrix(0.9997 2.403803e-02 -2.403803e-02 0.9997 2.4634 -2.3986)" class="st0" width="9.8" height="9.8"/>
<path class="st1" d="M148.7,96.5l-40-40c-2.3-2.3-6-2.3-8.3,0c0,0,0,0,0,0l-8.3,8.3l10.5,10.5c2.4-0.9,5.3-0.3,7.2,1.7
	c1.9,1.9,2.5,4.7,1.7,7.2l10.1,10.1c2.5-0.8,5.3-0.3,7.2,1.7c2.7,2.7,2.7,7.2,0,9.9c-2.7,2.7-7.2,2.7-9.9,0
	c-2.1-2.1-2.6-5.1-1.5-7.6l-9.5-9.5v24.9c0.7,0.3,1.3,0.8,1.9,1.3c2.7,2.7,2.7,7.2,0,9.9c-2.7,2.7-7.2,2.7-9.9,0l0,0
	c-2.7-2.7-2.7-7.2,0-9.9c0,0,0,0,0,0c0.7-0.7,1.4-1.2,2.3-1.5V88.4c-0.8-0.3-1.6-0.8-2.3-1.5c-2-2-2.6-5-1.5-7.7L88,68.9L60.6,96.2
	c-2.3,2.3-2.3,6,0,8.3c0,0,0,0,0,0l40,40c2.3,2.3,6,2.3,8.3,0c0,0,0,0,0,0l39.8-39.7C151,102.5,151,98.8,148.7,96.5
	C148.7,96.5,148.7,96.5,148.7,96.5"/>
</svg>
