<?xml version="1.0" encoding="utf-8"?>
<!-- Generator: Adobe Illustrator 24.2.1, SVG Export Plug-In . SVG Version: 6.00 Build 0)  -->
<svg version="1.1" id="Camada_1" xmlns="http://www.w3.org/2000/svg" xmlns:xlink="http://www.w3.org/1999/xlink" x="0px" y="0px"
	 viewBox="0 0 204 204" style="enable-background:new 0 0 204 204;" xml:space="preserve">
<style type="text/css">
	.st0{display:none;stroke:#FFFFFF;stroke-miterlimit:10;}
	.st1{fill:#326CE5;}
	.st2{fill:#FFFFFF;stroke:#FFFFFF;stroke-width:5.398700e-02;stroke-miterlimit:10;}
</style>
<rect x="96.1" y="96.4" transform="matrix(0.9997 2.403803e-02 -2.403803e-02 0.9997 2.4634 -2.3986)" class="st0" width="9.8" height="9.8"/>
<g>
	<path class="st1" d="M104.1,51.9c-0.9,0.1-1.7,0.3-2.5,0.7L68,68.6c-1.8,0.8-3,2.4-3.5,4.3l-8.2,36c-0.4,1.7-0.1,3.5,0.9,4.9
		c0.1,0.2,0.2,0.3,0.4,0.5l23.3,28.9c1.2,1.5,3.1,2.4,5,2.4h37.3c2,0,3.8-0.9,5-2.4l23.3-28.9c1.2-1.5,1.7-3.5,1.2-5.4l-8.3-36.1
		c-0.4-1.9-1.7-3.5-3.5-4.3l-33.6-16C106.3,52.1,105.2,51.9,104.1,51.9z"/>
	<path class="st2" d="M104.4,64.2c-1.2,0.1-2,1.1-2,2.2V67c0.1,0.6,0.1,1.3,0.3,1.9c0.2,1.2,0.3,2.4,0.2,3.7c-0.1,0.4-0.3,0.8-0.7,1
		l0,0.9c-1.2,0.1-2.4,0.3-3.6,0.6c-5,1.1-9.6,3.7-13.2,7.5L84.7,82c-0.4,0.1-0.8,0.1-1.2-0.1c-1-0.7-1.9-1.5-2.7-2.4
		c-0.4-0.5-0.9-1-1.3-1.4l-0.4-0.4c-0.4-0.3-0.9-0.5-1.4-0.5c-0.6,0-1.2,0.2-1.6,0.7c-0.7,1-0.5,2.3,0.5,3l0.4,0.3
		c0.5,0.4,1.1,0.7,1.7,1c1.1,0.6,2.1,1.3,3,2.1c0.2,0.3,0.4,0.7,0.4,1.2l0.7,0.6c-3.6,5.3-5,11.8-4.1,18.2l-0.8,0.2
		c-0.2,0.4-0.5,0.6-0.9,0.9c-1.2,0.3-2.4,0.5-3.6,0.6c-0.6,0-1.3,0.1-1.9,0.2l-0.5,0.1h-0.1c-1.1,0.1-1.9,1.2-1.7,2.3
		c0.1,0.4,0.3,0.8,0.6,1.2c0.5,0.5,1.3,0.7,2.1,0.5h0l0.5-0.1c0.6-0.2,1.2-0.4,1.8-0.7c1.1-0.5,2.3-0.8,3.5-1c0.4,0,0.8,0.2,1.2,0.4
		l0.9-0.2c2,6.1,6.1,11.3,11.6,14.5l-0.4,0.8c0.2,0.4,0.2,0.7,0.2,1.1c-0.5,1.2-1.1,2.3-1.8,3.3c-0.4,0.5-0.8,1.1-1.1,1.6l-0.3,0.5
		c-0.6,1-0.2,2.2,0.7,2.8c0.4,0.2,0.8,0.3,1.2,0.3c0.8-0.1,1.4-0.6,1.7-1.3l0.3-0.5c0.2-0.6,0.4-1.2,0.6-1.8
		c0.5-1.3,0.8-2.7,1.6-3.6c0.2-0.2,0.5-0.4,0.9-0.4l0.5-0.8c6,2.3,12.6,2.3,18.6,0l0.4,0.8c0.4,0.1,0.8,0.3,1,0.6
		c0.6,1.1,1,2.2,1.4,3.4c0.2,0.6,0.4,1.2,0.6,1.8l0.3,0.5c0.4,1,1.5,1.6,2.6,1.2c0.4-0.2,0.8-0.4,1-0.8c0.4-0.6,0.4-1.5,0-2.1
		l-0.3-0.5c-0.3-0.6-0.7-1.1-1.1-1.6c-0.7-1-1.3-2.1-1.8-3.2c-0.1-0.4,0-0.8,0.2-1.2c-0.1-0.3-0.2-0.5-0.3-0.8
		c5.5-3.3,9.6-8.5,11.6-14.6l0.9,0.2c0.3-0.3,0.7-0.4,1.1-0.4c1.2,0.2,2.4,0.6,3.5,1c0.6,0.3,1.2,0.5,1.8,0.7c0.1,0,0.4,0.1,0.5,0.1
		h0c1.1,0.3,2.2-0.2,2.5-1.3c0.1-0.4,0.1-0.9,0-1.3c-0.2-0.7-0.9-1.2-1.7-1.3l-0.6-0.1c-0.6-0.1-1.3-0.1-1.9-0.2
		c-1.2-0.1-2.4-0.3-3.6-0.6c-0.4-0.2-0.7-0.5-0.9-0.9l-0.8-0.2c0.9-6.3-0.6-12.8-4.2-18.1l0.7-0.7c0-0.4,0.1-0.8,0.4-1.1
		c0.9-0.8,1.9-1.5,3-2.1c0.6-0.3,1.1-0.6,1.7-1l0.4-0.4c0.9-0.6,1.2-1.8,0.6-2.8c-0.2-0.4-0.6-0.7-1.1-0.8c-0.7-0.3-1.6-0.1-2.1,0.5
		l-0.4,0.4c-0.5,0.4-0.9,0.9-1.3,1.4c-0.8,0.9-1.7,1.7-2.6,2.5c-0.4,0.2-0.8,0.2-1.2,0.1l-0.8,0.5c-4.4-4.6-10.4-7.5-16.7-8.1
		c0-0.3,0-0.8,0-0.9c-0.3-0.2-0.6-0.6-0.7-1c0-1.2,0-2.4,0.2-3.6c0.1-0.6,0.2-1.3,0.3-1.9v-0.6C106.5,65.3,105.6,64.3,104.4,64.2
		L104.4,64.2z M101.9,79.8l-0.6,10.6h0c0,1-0.9,1.7-1.8,1.7c-0.3,0-0.7-0.1-1-0.3l-8.7-6.1c2.8-2.7,6.2-4.6,10-5.4
		C100.5,80,101.2,79.8,101.9,79.8L101.9,79.8z M107,79.8c4.5,0.6,8.8,2.6,12.1,5.8l-8.6,6.1c-0.8,0.6-1.9,0.5-2.5-0.3
		c-0.2-0.3-0.4-0.7-0.4-1.1L107,79.8z M86.7,89.5l7.9,7.1v0c0.7,0.6,0.8,1.8,0.2,2.5c-0.2,0.3-0.5,0.5-0.9,0.5v0l-10.2,2.9
		C83.2,98.1,84.3,93.4,86.7,89.5L86.7,89.5z M122.2,89.5c2.4,3.9,3.5,8.5,3,13.1L115,99.7v0c-0.9-0.3-1.5-1.2-1.2-2.2
		c0.1-0.3,0.3-0.6,0.5-0.9L122.2,89.5L122.2,89.5z M102.8,97.1h3.2l2,2.5l-0.7,3.1l-2.9,1.4l-2.9-1.4l-0.7-3.1L102.8,97.1z
		 M113.2,105.7c0.1,0,0.3,0,0.4,0l10.5,1.8c-1.5,4.4-4.5,8.1-8.4,10.6l-4-9.8c-0.4-0.9,0-2,0.9-2.3
		C112.8,105.8,113,105.8,113.2,105.7L113.2,105.7z M95.6,105.8c1,0,1.8,0.8,1.7,1.8c0,0.2-0.1,0.5-0.1,0.7v0l-4,9.7
		c-3.8-2.5-6.8-6.1-8.3-10.4l10.4-1.8C95.4,105.8,95.5,105.8,95.6,105.8L95.6,105.8z M104.4,110c0.7,0,1.3,0.3,1.6,0.9h0l5.1,9.2
		c-0.7,0.2-1.4,0.4-2,0.6c-3.8,0.9-7.7,0.7-11.4-0.6l5.1-9.2C103.2,110.4,103.8,110.1,104.4,110L104.4,110z"/>
</g>
</svg>
