<?xml version="1.0" encoding="utf-8"?>
<!-- Generator: Adobe Illustrator 24.2.1, SVG Export Plug-In . SVG Version: 6.00 Build 0)  -->
<svg version="1.1" id="Camada_1" xmlns="http://www.w3.org/2000/svg" xmlns:xlink="http://www.w3.org/1999/xlink" x="0px" y="0px"
	 viewBox="0 0 204 204" style="enable-background:new 0 0 204 204;" xml:space="preserve">
<style type="text/css">
	.st0{display:none;stroke:#FFFFFF;stroke-miterlimit:10;}
	.st1{fill-rule:evenodd;clip-rule:evenodd;fill:#00D8FF;}
	.st2{fill:none;stroke:#00D8FF;stroke-width:8;stroke-miterlimit:10;}
</style>
<rect x="96.1" y="96.4" transform="matrix(0.9997 2.403803e-02 -2.403803e-02 0.9997 2.4634 -2.3986)" class="st0" width="9.8" height="9.8"/>
<g transform="matrix(.05696 0 0 .05696 .647744 2.43826)">
	<circle class="st1" cx="1781.6" cy="1746.6" r="164.3"/>
	<g>
		<path class="st2" d="M1781.6,1412.6c220.6,0,425.5,31.6,580,84.8c186.1,64.1,300.6,161.2,300.6,249.2
			c0,91.7-121.3,194.9-321.2,261.1c-151.1,50.1-350,76.2-559.4,76.2c-214.7,0-417.9-24.5-570.8-76.8
			c-193.4-66.1-309.8-170.6-309.8-260.5c0-87.2,109.3-183.6,292.8-247.6C1348.8,1445,1558.8,1412.6,1781.6,1412.6L1781.6,1412.6z"/>
		<path class="st2" d="M1490.8,1580.6c110.2-191.1,240-352.8,363.2-460c148.5-129.2,289.8-179.9,366-135.9
			c79.4,45.8,108.2,202.4,65.7,408.7c-32.1,155.9-108.8,341.3-213.4,522.6c-107.2,186-230,349.8-351.6,456.1
			c-153.8,134.5-302.6,183.2-380.5,138.2c-75.6-43.6-104.5-186.4-68.2-377.4C1302.6,1971.6,1379.5,1773.5,1490.8,1580.6
			L1490.8,1580.6z"/>
		<path class="st2" d="M1491.1,1916.4c-110.5-190.9-185.7-384.1-217.1-544.4c-37.8-193.2-11.1-340.9,65-385
			c79.3-45.9,229.4,7.3,386.9,147.2c119.1,105.7,241.3,264.7,346.2,445.9c107.6,185.8,188.2,374,219.5,532.4
			c39.7,200.5,7.6,353.6-70.3,398.7c-75.5,43.7-213.7-2.6-361-129.4C1735.8,2274.7,1602.7,2109.2,1491.1,1916.4L1491.1,1916.4z"/>
	</g>
</g>
</svg>
