<?xml version="1.0" encoding="utf-8"?>
<!-- Generator: Adobe Illustrator 24.2.1, SVG Export Plug-In . SVG Version: 6.00 Build 0)  -->
<svg version="1.1" id="Camada_1" xmlns="http://www.w3.org/2000/svg" xmlns:xlink="http://www.w3.org/1999/xlink" x="0px" y="0px"
	 viewBox="0 0 204 204" style="enable-background:new 0 0 204 204;" xml:space="preserve">
<style type="text/css">
	.st0{stroke:#FFFFFF;stroke-miterlimit:10;}
	.st1{fill:#E23237;}
	.st2{fill:#B52E31;}
	.st3{fill:#FFFFFF;}
</style>
<rect x="96.1" y="96.4" transform="matrix(0.9997 2.403803e-02 -2.403803e-02 0.9997 2.4634 -2.3986)" class="st0" width="9.8" height="9.8"/>
<g>
	<path class="st1" d="M55.3,71.7l45.8-16.3l47,16.1l-7.6,60.6l-39.4,21.8l-38.8-21.5L55.3,71.7z"/>
	<path class="st2" d="M148.2,71.5l-47-16.1v98.5l39.4-21.8C140.6,132.1,148.2,71.5,148.2,71.5z"/>
	<path class="st3" d="M101.2,66.9l-28.6,63.5l10.7-0.2l5.8-14.4h25.5l6.3,14.5l10.2,0.2L101.2,66.9z M101.3,87.3l9.7,20.2H92.9
		L101.3,87.3L101.3,87.3z"/>
</g>
</svg>
