<?xml version="1.0" encoding="utf-8"?>
<!-- Generator: Adobe Illustrator 24.2.1, SVG Export Plug-In . SVG Version: 6.00 Build 0)  -->
<svg version="1.1" id="Camada_1" xmlns="http://www.w3.org/2000/svg" xmlns:xlink="http://www.w3.org/1999/xlink" x="0px" y="0px"
	 viewBox="0 0 204 204" style="enable-background:new 0 0 204 204;" xml:space="preserve">
<style type="text/css">
	.st0{display:none;stroke:#FFFFFF;stroke-miterlimit:10;}
	.st1{fill:#252F3E;}
	.st2{fill-rule:evenodd;clip-rule:evenodd;fill:#FF9900;}
</style>
<rect x="96.1" y="96.4" transform="matrix(0.9997 2.403803e-02 -2.403803e-02 0.9997 2.4634 -2.3986)" class="st0" width="9.8" height="9.8"/>
<g>
	<path class="st1" d="M75.7,94c0,1.4,0.1,2.4,0.4,3.2c0.3,0.8,0.7,1.7,1.2,2.6c0.2,0.3,0.3,0.6,0.3,0.8c0,0.4-0.2,0.7-0.7,1.1
		l-2.3,1.5c-0.3,0.2-0.7,0.3-0.9,0.3c-0.4,0-0.7-0.2-1.1-0.5c-0.5-0.5-0.9-1.1-1.3-1.7c-0.4-0.6-0.7-1.3-1.1-2.2
		c-2.8,3.4-6.4,5-10.7,5c-3.1,0-5.5-0.9-7.3-2.6c-1.8-1.8-2.7-4.1-2.7-7c0-3.1,1.1-5.6,3.3-7.5c2.2-1.9,5.2-2.8,8.9-2.8
		c1.2,0,2.5,0.1,3.9,0.3c1.4,0.2,2.7,0.5,4.2,0.8v-2.7c0-2.8-0.6-4.7-1.7-5.8c-1.2-1.1-3.1-1.7-5.9-1.7c-1.3,0-2.6,0.1-3.9,0.5
		c-1.4,0.3-2.7,0.7-3.9,1.2c-0.6,0.3-1,0.4-1.3,0.5s-0.4,0.1-0.6,0.1c-0.5,0-0.8-0.4-0.8-1.1v-1.8c0-0.6,0.1-1,0.3-1.3
		c0.2-0.3,0.5-0.5,1-0.8c1.3-0.7,2.8-1.2,4.6-1.6c1.8-0.5,3.7-0.7,5.7-0.7c4.3,0,7.5,1,9.6,3c2,2,3,5,3,9L75.7,94L75.7,94z
		 M60.9,99.5c1.2,0,2.4-0.2,3.8-0.7c1.3-0.4,2.5-1.2,3.5-2.3c0.6-0.7,1-1.5,1.2-2.3c0.2-0.9,0.4-1.9,0.4-3.2v-1.5
		c-1.1-0.3-2.2-0.5-3.4-0.6s-2.3-0.2-3.4-0.2c-2.4,0-4.2,0.5-5.4,1.5c-1.2,1-1.8,2.4-1.8,4.2c0,1.7,0.4,3,1.4,3.9
		C57.9,99.1,59.2,99.5,60.9,99.5L60.9,99.5z M90.2,103.5c-0.7,0-1.1-0.1-1.4-0.4c-0.3-0.2-0.5-0.7-0.8-1.4l-8.6-28.2
		c-0.2-0.7-0.3-1.2-0.3-1.5c0-0.6,0.3-0.9,0.9-0.9h3.6c0.7,0,1.2,0.1,1.4,0.4c0.3,0.2,0.5,0.7,0.7,1.4L91.9,97l5.7-24.2
		c0.2-0.7,0.4-1.2,0.7-1.4c0.3-0.2,0.8-0.4,1.5-0.4h2.9c0.7,0,1.2,0.1,1.5,0.4c0.3,0.2,0.5,0.7,0.7,1.4l5.8,24.5l6.3-24.5
		c0.2-0.7,0.5-1.2,0.7-1.4c0.3-0.2,0.8-0.4,1.4-0.4h3.4c0.6,0,0.9,0.3,0.9,0.9c0,0.2,0,0.4-0.1,0.6s-0.1,0.5-0.3,0.9l-8.8,28.2
		c-0.2,0.7-0.5,1.2-0.8,1.4c-0.3,0.2-0.8,0.4-1.4,0.4h-3.1c-0.7,0-1.2-0.1-1.5-0.4c-0.3-0.3-0.5-0.7-0.7-1.5l-5.7-23.5l-5.6,23.5
		c-0.2,0.7-0.4,1.2-0.7,1.5s-0.8,0.4-1.5,0.4H90.2z M137.1,104.5c-1.9,0-3.8-0.2-5.6-0.7c-1.8-0.4-3.2-0.9-4.2-1.5
		c-0.6-0.3-1-0.7-1.1-1c-0.1-0.3-0.2-0.7-0.2-1v-1.9c0-0.8,0.3-1.1,0.8-1.1c0.2,0,0.4,0,0.7,0.1c0.2,0.1,0.5,0.2,0.9,0.4
		c1.2,0.5,2.6,1,4,1.3c1.5,0.3,2.9,0.4,4.3,0.4c2.3,0,4.1-0.4,5.3-1.2c1.2-0.8,1.9-2,1.9-3.5c0-1-0.3-1.9-1-2.6s-1.9-1.3-3.7-1.9
		l-5.3-1.6c-2.7-0.8-4.6-2.1-5.8-3.7c-1.2-1.6-1.8-3.4-1.8-5.3c0-1.5,0.3-2.9,1-4.1s1.5-2.2,2.6-3c1.1-0.8,2.3-1.5,3.8-1.9
		c1.5-0.4,3-0.6,4.6-0.6c0.8,0,1.6,0,2.4,0.1c0.8,0.1,1.6,0.3,2.4,0.4c0.7,0.2,1.4,0.4,2.1,0.6c0.7,0.2,1.2,0.4,1.5,0.7
		c0.5,0.3,0.9,0.6,1.1,0.9c0.2,0.3,0.3,0.7,0.3,1.2v1.7c0,0.8-0.3,1.2-0.8,1.2c-0.3,0-0.8-0.1-1.4-0.4c-2.1-0.9-4.4-1.4-7-1.4
		c-2.1,0-3.7,0.3-4.9,1c-1.1,0.7-1.7,1.8-1.7,3.2c0,1,0.4,1.9,1.1,2.6c0.7,0.7,2.1,1.4,4,2l5.2,1.6c2.6,0.8,4.5,2,5.7,3.5
		c1.1,1.5,1.7,3.2,1.7,5.1c0,1.6-0.3,3-0.9,4.2c-0.7,1.2-1.5,2.3-2.7,3.2c-1.1,0.9-2.5,1.6-4.1,2C140.7,104.2,139,104.5,137.1,104.5
		L137.1,104.5z"/>
	<g>
		<path class="st2" d="M144,122.2c-12,8.9-29.5,13.6-44.5,13.6c-21,0-40-7.8-54.3-20.7c-1.1-1-0.1-2.4,1.2-1.6
			c15.5,9,34.6,14.4,54.3,14.4c13.3,0,28-2.8,41.4-8.5C144.2,118.5,146,120.7,144,122.2z"/>
		<path class="st2" d="M149,116.5c-1.5-2-10.1-0.9-14.1-0.5c-1.2,0.1-1.4-0.9-0.3-1.6c6.9-4.8,18.1-3.4,19.5-1.8
			c1.3,1.6-0.4,12.9-6.8,18.3c-1,0.8-1.9,0.4-1.5-0.7C147.3,126.6,150.5,118.4,149,116.5z"/>
	</g>
</g>
</svg>
