<?xml version="1.0" encoding="utf-8"?>
<!-- Generator: Adobe Illustrator 24.2.1, SVG Export Plug-In . SVG Version: 6.00 Build 0)  -->
<svg version="1.1" id="Camada_1" xmlns="http://www.w3.org/2000/svg" xmlns:xlink="http://www.w3.org/1999/xlink" x="0px" y="0px"
	 viewBox="0 0 682 614" style="enable-background:new 0 0 682 614;" xml:space="preserve">
<style type="text/css">
	.st0{clip-path:url(#SVGID_2_);}
	.st1{opacity:0.63;}
	.st2{fill-rule:evenodd;clip-rule:evenodd;fill:#C4B0B8;}
	.st3{opacity:0.47;}
	.st4{fill-rule:evenodd;clip-rule:evenodd;fill:#C4B0FF;}
	.st5{opacity:0.2;enable-background:new    ;}
	.st6{fill-rule:evenodd;clip-rule:evenodd;fill:#373C42;}
	.st7{fill:url(#SVGID_3_);}
	.st8{clip-path:url(#SVGID_5_);}
	.st9{fill:url(#SVGID_6_);}
	.st10{fill-rule:evenodd;clip-rule:evenodd;fill:url(#SVGID_7_);}
	.st11{fill-rule:evenodd;clip-rule:evenodd;fill:url(#SVGID_8_);}
	.st12{fill-rule:evenodd;clip-rule:evenodd;fill:url(#SVGID_9_);}
	.st13{fill-rule:evenodd;clip-rule:evenodd;fill:#FFFFFF;}
	.st14{fill-rule:evenodd;clip-rule:evenodd;fill:url(#SVGID_10_);}
	.st15{fill:#5A5B5B;}
	.st16{fill-rule:evenodd;clip-rule:evenodd;fill:#53345F;}
	.st17{fill-rule:evenodd;clip-rule:evenodd;fill:url(#SVGID_11_);}
	.st18{fill-rule:evenodd;clip-rule:evenodd;fill:url(#SVGID_12_);}
	.st19{fill-rule:evenodd;clip-rule:evenodd;fill:#282828;}
	.st20{fill-rule:evenodd;clip-rule:evenodd;fill:#383838;}
	.st21{fill-rule:evenodd;clip-rule:evenodd;fill:#474747;}
	.st22{fill-rule:evenodd;clip-rule:evenodd;fill:#A5A5A5;}
	.st23{fill-rule:evenodd;clip-rule:evenodd;fill:url(#SVGID_13_);}
	.st24{fill:#FFFFFF;}
	.st25{fill:#3D3E3F;}
	.st26{fill-rule:evenodd;clip-rule:evenodd;}
	.st27{fill-rule:evenodd;clip-rule:evenodd;fill:url(#SVGID_14_);}
	.st28{opacity:0.5;fill-rule:evenodd;clip-rule:evenodd;fill:#212121;enable-background:new    ;}
	.st29{fill-rule:evenodd;clip-rule:evenodd;fill:#3D3E3F;}
	.st30{fill-rule:evenodd;clip-rule:evenodd;fill:url(#SVGID_15_);}
	.st31{fill-rule:evenodd;clip-rule:evenodd;fill:url(#SVGID_16_);}
	.st32{fill-rule:evenodd;clip-rule:evenodd;fill:url(#SVGID_17_);}
	.st33{fill-rule:evenodd;clip-rule:evenodd;fill:url(#SVGID_18_);}
	.st34{fill:url(#SVGID_19_);}
	.st35{fill-rule:evenodd;clip-rule:evenodd;fill:url(#SVGID_20_);}
	.st36{fill-rule:evenodd;clip-rule:evenodd;fill:url(#SVGID_21_);}
	.st37{fill-rule:evenodd;clip-rule:evenodd;fill:url(#SVGID_22_);}
	.st38{fill-rule:evenodd;clip-rule:evenodd;fill:url(#SVGID_23_);}
	.st39{fill-rule:evenodd;clip-rule:evenodd;fill:url(#SVGID_24_);}
	.st40{fill-rule:evenodd;clip-rule:evenodd;fill:url(#SVGID_25_);}
	.st41{fill-rule:evenodd;clip-rule:evenodd;fill:url(#SVGID_26_);}
	.st42{fill:url(#SVGID_27_);}
	.st43{fill-rule:evenodd;clip-rule:evenodd;fill:url(#SVGID_28_);}
	.st44{fill-rule:evenodd;clip-rule:evenodd;fill:url(#SVGID_29_);}
	.st45{fill-rule:evenodd;clip-rule:evenodd;fill:url(#SVGID_30_);}
	.st46{fill-rule:evenodd;clip-rule:evenodd;fill:url(#SVGID_31_);}
	.st47{fill-rule:evenodd;clip-rule:evenodd;fill:url(#SVGID_32_);}
	.st48{fill-rule:evenodd;clip-rule:evenodd;fill:url(#SVGID_33_);}
	.st49{fill-rule:evenodd;clip-rule:evenodd;fill:url(#SVGID_34_);}
	.st50{fill-rule:evenodd;clip-rule:evenodd;fill:url(#SVGID_35_);}
	.st51{fill-rule:evenodd;clip-rule:evenodd;fill:url(#SVGID_36_);}
	.st52{opacity:0.5;fill-rule:evenodd;clip-rule:evenodd;fill:#434443;enable-background:new    ;}
	.st53{fill-rule:evenodd;clip-rule:evenodd;fill:url(#SVGID_37_);}
	.st54{fill-rule:evenodd;clip-rule:evenodd;fill:url(#SVGID_38_);}
	.st55{opacity:0.5;}
	.st56{opacity:0.36;}
	.st57{fill-rule:evenodd;clip-rule:evenodd;fill:url(#SVGID_39_);}
	.st58{fill-rule:evenodd;clip-rule:evenodd;fill:url(#SVGID_40_);}
	.st59{fill:url(#SVGID_41_);}
	.st60{fill:url(#SVGID_42_);}
	.st61{fill:url(#SVGID_43_);}
	.st62{fill:url(#SVGID_44_);}
	.st63{fill:url(#SVGID_45_);}
	.st64{fill:url(#SVGID_46_);}
	.st65{fill:url(#SVGID_47_);}
	.st66{opacity:0.2;fill:#373C42;enable-background:new    ;}
	.st67{clip-path:url(#SVGID_49_);}
	.st68{fill:none;stroke:#FFFFFF;stroke-width:1.0175;stroke-miterlimit:10;}
	.st69{fill:none;stroke:#FCFCFC;stroke-width:0.848;stroke-miterlimit:10;}
	.st70{fill:#848484;}
	.st71{clip-path:url(#SVGID_51_);}
	.st72{fill:#FF83A8;}
	.st73{clip-path:url(#SVGID_53_);fill:#3B3C3D;}
	.st74{opacity:0.5;clip-path:url(#SVGID_55_);fill:#E23875;enable-background:new    ;}
	.st75{clip-path:url(#SVGID_57_);fill:#772AC3;}
	.st76{clip-path:url(#SVGID_59_);fill:#772AC3;}
	.st77{fill:#3B3C3D;}
	.st78{fill:#E23875;}
	.st79{fill:#010002;}
	.st80{opacity:0.2;clip-path:url(#SVGID_61_);fill:#373C42;enable-background:new    ;}
	.st81{fill:#4C4C4C;}
	.st82{fill:#020202;}
	.st83{opacity:0.2;clip-path:url(#SVGID_63_);fill:#373C42;enable-background:new    ;}
	.st84{clip-path:url(#SVGID_65_);fill:#E23875;}
	.st85{fill:#8E0D42;}
	.st86{clip-path:url(#SVGID_67_);fill:#E23875;}
	.st87{clip-path:url(#SVGID_69_);fill:#FFFFFF;}
	.st88{fill:#303030;}
	.st89{clip-path:url(#SVGID_71_);}
	.st90{fill:#353535;}
	.st91{clip-path:url(#SVGID_73_);}
	.st92{enable-background:new    ;}
	.st93{fill:#656666;}
	.st94{opacity:0.2;fill:#01056A;enable-background:new    ;}
	.st95{fill:#3A3A3A;}
	.st96{clip-path:url(#SVGID_75_);fill:#020207;}
	.st97{clip-path:url(#SVGID_77_);fill:#FFFFFF;}
	.st98{clip-path:url(#SVGID_79_);fill:#020207;}
	.st99{clip-path:url(#SVGID_81_);fill:#FFFFFF;}
</style>
<g>
	<g>
		<defs>
			<rect id="SVGID_1_" x="79.6" y="21.6" width="552" height="562"/>
		</defs>
		<clipPath id="SVGID_2_">
			<use xlink:href="#SVGID_1_"  style="overflow:visible;"/>
		</clipPath>
		<g class="st0">
			<g class="st1">
				<g class="st1">
					<path class="st2" d="M129.9,183.3c1.3,3.5,3,6.5,4.1,10c0.7,2.5,1.7,4.9,3,7.1c1.4,2.3,2.2,4.9,3.6,7.2
						c1.5,2.6,2.7,5.3,3.5,8.2c0.5,2.1,0.6,4.3,1.2,6.5c0.7,2.7,1.5,5.5,2.2,8.2c0.5,1.7,1.3,3.3,2.3,4.8c1,1.6,2.2,4.1,3.7,5.3
						c5,3.6,12.3,2.1,18.1,1.4c5.3-0.6,10.7-0.6,16-1.3c2.8-0.3,5.6-0.4,8.4-0.2c2.7,0.1,5.4,0.4,8,0.9c2.3,0.4,4.5,0.5,6.8,0.9
						c3.3,0.5,6.6,1.3,9.9,1.7c3.7,0.3,7.5,0.8,11.2,0.9c5.3,0.1,10.7-0.4,16,0.1c4.6,0.7,9.3,1.1,13.9,1.3c6.1,0,12.1-1.8,17.8-3.9
						c9.4-3.4,19.1-6.2,28.5-9.7c3.4-1.5,6.7-3.2,9.8-5.3c2.9-1.7,6-2.8,8.8-4.7c5.3-3.3,11.1-5.5,17.1-6.7
						c5.9-1.3,11.7-3.5,17.5-4.8c4-0.9,7.7-2.9,11.7-3.4c-0.7,3.1-7.5,4.2-9.9,5.1c-5.6,2-11.6,3.1-17,5.5c-3.5,1.6-6,4.6-8.8,7.2
						c-2.6,2.4-4.5,4.8-7.4,6.8s-6.1,3.3-9.6,4c-7.6,1.5-15,4.2-22.5,5.9c-7.6,1.7-14.9,3.4-21.9,6.6c-1.9,0.9-7.6,3.1-7.8,5.9
						c-0.2,2.2,2.5,1.4,4.1,1.4c3.4,0,7.8-0.8,11,0.5c2.3,1.1,4.6,2,7.1,2.7c5.8,1,11.7,0.4,17.1-1.8c7.3-2.8,15.2-4.3,22.8-5.7
						c5.3-1,10.4-2.5,15.7-3.6c4-0.7,8.1-1.2,12.2-1.4c6-0.6,11.9-1.3,17.8-2.2c4.7-0.8,9.9-1.3,14.2-3.4c3.6-1.8,7.8-2.9,11-5.4
						c0.8-0.7,5.6-4.8,6.8-3.8c2.3,2-10.9,9.6-11.9,10.2c-4.3,2.7-8.8,5-13.6,6.7c-6,2.5-12.2,3.5-18.5,5.1
						c-7.2,1.8-14.3,3.3-21.4,5.1s-14.5,2.7-21.6,5.1c-3.6,1.1-7.1,2.5-10.5,4.1c-3.1,1.6-6.4,2.6-9.4,4.3
						c-6.6,3.5-12.7,8.5-19.9,10.8c-6.2,2.1-12.6,3.6-19.2,4.2c-8.6,0.7-17.1-0.5-25.6-1.4c-8.7-1-17.4-1.5-26.1-1.5
						c-8.1,0.1-16.1,1.8-24.2,2.2c-5.5,0.3-10-1.7-15.1-3.6c-5.6-2.2-10.9-4.9-15.9-8.1c-4.5-2.8-9.7-4.2-15-4.1
						c-1.1,0.2-2.2,0.4-3.3,0.8c-1.3,0.1-2.6-0.3-3.6-1c-4.7-2.2-9.5-5.9-11.9-10.8c-2.3-5.3-3.8-10.9-4.4-16.6
						c-0.3-3.3-0.3-6.6-0.1-9.9c0-4.4-0.8-8.7-0.8-13c0-6.9-0.8-14.3,1.4-21c2-6.3,6.2-12.2,10.1-17.5c2.2-3,4-6.3,6.2-9.2
						c0.8,1.6-1.1,4.6-1.5,6.2C132,181.3,131.1,185.6,129.9,183.3z"/>
				</g>
				<g class="st1">
					<path class="st2" d="M455.3,221.1c-2,2.6-5.7,6-6.3,9.5c-0.6,3.5,3.2,2.9,5.7,2.5c5.3-0.8,10.8-1.3,15.8-3.4
						c3-1.2,5.7-2.9,8.7-4.2c2.5-1,5.1-1.4,7.5-2.4c5.8-2.5,12.1-3.8,17.9-6.4c5.1-2.6,9.7-5.9,13.6-10c2.8-2.7,5.6-4.8,7.6-8.4
						c1.4-2.6,3.2-5.1,4.3-7.9c1.5-3.7,2.4-7.6,2.8-11.5c0.3-2.1,0.3-4.2,0.1-6.3c-0.7-4.8-5.5-5.3-9.6-4.7c-5,0.7-9.1,3.6-12.9,6.9
						c-3.7,3.2-6.6,6.8-10.7,9.2c-4.5,2.7-8.9,5.5-13.2,8.5c-2.3,1.5-4.5,3.2-6.5,5.1c-1.6,1.7-3.2,3.5-5,5s-3.8,2.9-5.8,4.1
						c-1.6,1-3.2,2.5-4.9,3.4c-2.2,1.1-4.2,2.6-6,4.3c-1.3,1.1-2.4,2.4-3.3,3.8C453.9,220.6,454.2,223.8,455.3,221.1z"/>
				</g>
				<g class="st1">
					<path class="st2" d="M513.8,151.1c0.9-2.7,1.5-3.7,4-5c1.6-0.8,2.6-1,3.8,0.7c2,3.3,0.6,7.4-0.8,10.6c-0.9,2.3-4.7,4.7-6.5,1.8
						c-1.2-2-1.1-7.9,1.6-8.7L513.8,151.1z"/>
				</g>
				<g class="st1">
					<path class="st2" d="M299.7,250.3c1.3-2.4,1.6-2.7,4-3.6c1.5-0.7,3.1-1.2,4.7-1.4c2-0.2,4.2-1.3,6.3-0.6
						c3.1,1.1,2.5,3.9,0.4,5.8c-0.8,0.9-1.9,1.6-3.1,1.9c-1.6,0.4-3.3,0.7-5,0.7c-2.9,0-5.3,0.1-7.8-1.6c-0.1-0.3,0-0.5,0.1-0.8
						C299.3,250.6,299.5,250.4,299.7,250.3L299.7,250.3z"/>
				</g>
				<g class="st1">
					<path class="st2" d="M179.8,430.8c8.2,2.9,16.8,4.3,25.5,4.4c10.3,0.3,20.5,0,30.8-0.9c6.8-0.6,13.5-0.5,20.3-1.4
						c3.3-0.5,6.4-0.3,9.7-0.5c1.9-0.1,3.9-1.2,5.7-0.6c7.1,2.2-5.5,6.3-7,7c-5.2,2.6-10.9,3.4-16.4,5c-2.1,0.6-4.3,1.2-6.3,1.9
						c-1.9,0.8-3.9,1.6-5.9,2.2c-8.4,1.8-16.8,2.6-25.2,4.4c-3.2,0.8-6.4,1-9.7,0.6c-3.3-0.6-6.5-2.6-9.5-4.1
						c-3.7-1.6-7.3-3.6-10.7-5.9c-1.7-1.2-3.4-2.5-4.9-4c-0.6-0.9-1.1-1.8-1.3-2.9c-0.8-2.2-0.8-3,1.1-4.6c0.7-0.6,1.5-1,2.4-1.2
						s1.8-0.2,2.7,0.1C181.2,430.5,181.2,430.7,179.8,430.8z"/>
				</g>
				<g class="st1">
					<path class="st2" d="M397,515.1c-4.3,1.2-8.3,3-12,5.5c-1.6,1.1-3.6,3.1-1.2,4.5c3.2,2,8.4,0.9,11.9,0.6
						c6-0.5,11.9-1.6,17.8-2.4c4-0.5,8-1,12-1.8c5.2-1.1,10.3-2.6,15.3-4.4c3.7-1.2,7.2-2.8,10.5-4.9c3.5-2,6.9-4.2,10.1-6.6
						c4.1-3.4,9.5-6.1,11.1-11.6c1.3-4.6-8.6-2.9-10.5-2.6c-7.3,1-14.6,2.8-21.5,5.4c-3,1.1-6.2,1.9-9.2,3.2
						c-4,1.8-7.7,3.8-11.8,5.4c-1.9,0.8-3.6,2-5.5,2.6c-1.7,0.6-3.4,1.2-5.1,1.9c-1.7,0.7-3.8,1.6-5.7,2.2
						C398.7,513.5,394.3,514.7,397,515.1z"/>
				</g>
				<g class="st1">
					<path class="st2" d="M476,481.8c0.8-2.5,2.3-3.6,4.2-5.4c1.4-1.4,2.8-2.9,4.9-3.2c1.5-0.2,4,1.5,3.3,3.3
						c-0.6,1-1.3,1.9-2.1,2.6c-0.7,1.1-1.6,2-2.7,2.6c-2.2,1-4.7,1.2-7,0.4L476,481.8z"/>
				</g>
				<g class="st1">
					<path class="st2" d="M501.7,421.8c-1.7,1-3.6,1.9-5.4,2.6c-1.4,0.3-2.9,0.6-4.3,0.8c-4.4,0.7-8.9,1-13.3,1.4
						c-5.6,0.6-11.2,1.3-16.8,1.8c-9.9,0.8-20.4,1.6-29.9,4.7c-8,2.6-15.7,5.8-23.1,9.8c-6.5,3.4-12.8,7.4-18.6,11.9
						c-1.9,1.6-3.7,3.3-5.4,5.2c-1.2,1.1-2.2,2.5-3,4c-1,2.3-0.1,4,2,5.3c3.2,2,7.1,2.2,10.8,2.7c5.4,0.8,10.9,1.4,16.3,2.3
						c5.6,0.9,11.3,1.5,16.9,1.8c5.8,0.3,11.9,0.1,17.4-2c3.9-1.4,7.7-3.1,11.4-5.1c3.6-2,7.1-4.1,10.5-6.4c2.5-1.5,4.9-3.2,7.1-5
						c0.9-0.9,1.9-1.6,2.9-2.5c1.5-1.3,2.6-2.9,4.2-4.2c3.4-2.9,6.5-6.1,9.2-9.7c2.1-2.7,4.6-5.1,6.7-7.8c1.2-1.6,2.5-2.5,3.2-4.5
						C501,426.6,501.5,424.2,501.7,421.8z"/>
				</g>
				<g class="st1">
					<path class="st2" d="M513.6,413.7c0.9-1.7,2.2-3.2,3.7-4.4c1.2-1.1,2.8-3.1,4.4-3.7c0.4-0.2,0.9-0.2,1.3-0.2
						c0.4,0.1,0.9,0.3,1.2,0.5c0.3,0.3,0.5,0.7,0.6,1.2c0.1,0.4,0.2,0.9,0.1,1.3c-0.3,2-2.3,3.6-4,4.4c-2.1,1.1-3.3,0.5-5.5,0.2
						L513.6,413.7z"/>
				</g>
				<g class="st1">
					<path class="st2" d="M589.2,342.9c-1.1,0.8-2.1,1.8-3,2.9c-1.3,1.9-2.4,4-4,5.7c-1.5,1.9-2.9,4-4.1,6.2c-1.6,2.7-3.4,5.3-4.8,8
						c-3.1,6-5.6,12.2-8.4,18.3c-1.4,3.1-2.6,6.2-4,9.2c-1.6,3.3-2.7,6.7-3.4,10.2c-0.4,2.6-1.1,6.9,2.4,7.4
						c4.3,0.6,8.6-3.1,11.7-5.5c8.1-6.5,15.1-14.4,20.6-23.3c5.5-8.8,10.9-19.3,9.5-29.9c-0.5-4.8-0.4-9.7,0.3-14.5
						c0.7-5.1,2.2-10.2,2.3-15.4c0-3.7,0.7-7.2-0.1-10.9c-0.1-1.2-0.7-2.3-1.6-3.1c-0.9-0.6-1.6,0-2.5,0.6c-2.6,1.9-4.6,4.3-6,7.2
						c-1.7,3.5-1.8,7.3-3.2,10.9c-0.4,1.3-0.9,2.5-1.4,3.8c-0.5,1-1.2,1.9-1.7,2.9c-0.8,1.8-1.4,3.7-1.8,5.7
						c-0.3,1.2-0.5,2.3-0.8,3.5c-0.3,0.9-0.7,1.9-0.9,2.9C584.4,346.8,584.7,347.5,589.2,342.9z"/>
				</g>
				<g class="st1">
					<path class="st2" d="M549.7,406.1c-0.9,0.8-6,5.9-4,7.1c0.6,0.4,2.1,0,2.6-0.3c1-0.5,2-1.2,2.8-2c0.5-0.4,0.9-0.9,1.2-1.5
						c0.2-0.6,0.3-1.3,0.2-1.9c0-2.3-1.4-2.2-3.3-1.4L549.7,406.1z"/>
				</g>
				<g class="st1">
					<path class="st2" d="M562.1,418c1.1-1.5,1.4-2.1,3-2.7c1.1-0.7,2.3-1.2,3.6-1.6c1.6-0.3,2.4,0.4,2.5,2c0.2,2.8-3.3,6.5-4.8,8.5
						c-1.9,2.6-4.1,5-6.6,7.1c-3.6,2.8-6.2-1.7-4.8-5.1c0.8-2,1.1-4.4,2.4-6.2c2-2.8,4.9-2.8,8.1-3.4L562.1,418z"/>
				</g>
				<g class="st1">
					<path class="st2" d="M286.2,109.8c-1.5,0.8-2.8,1.9-3.9,3.3c-1,1.4-1.8,2.9-2.2,4.6c-0.5,1.6-1.1,5.1,0.2,6.5
						c2.3,2.4,8.5-0.2,10.8-1.1c4.4-1.7,8.9-4.2,13.4-5.3c8.6-2,18.1-2.8,25.5-8.1c4.2-3.1,7.8-7,10.7-11.4c1.9-2.7,4.3-4.9,4.6-8.5
						c0.5-7.1-9.5-7.6-14.1-6.5c-10,2.2-19.7,5.5-29,9.8c-5.5,2.6-12.2,6-16.1,10.9c-1,1.4-1.8,2.9-2.3,4.4
						C283.4,109.6,282.3,112.8,286.2,109.8z"/>
				</g>
				<g class="st1">
					<path class="st2" d="M304.7,129.7c-1.2-2.6-1.8-2.9,0.2-4.5c1.6-1.3,3.4-2.4,5.3-3.3c2.2-1.1,4.7-1.7,7.1-1.6
						c5,0.6,2.7,6.2,1.2,8.9c-1,1.7-1.7,3.3-3.3,4.2c-1.9,1.1-3.2,1.6-5.3,0.9c-1.5-0.6-2.8-1.4-4-2.5c-0.8-0.8-2.8-2.1-2.6-3.5
						l0.6-0.1L304.7,129.7z"/>
				</g>
				<g class="st1">
					<path class="st2" d="M269.7,191.1c0.1-2.4-0.1-2.9,1.4-4.4c2.2-2.2,5.4-4,8-5.6c5.9-3.7,12.2-6.7,18.9-8.8
						c5.9-1.9,12-3.3,18.1-4.2c4.6-0.7,8.9-2.2,13.5-2.9c7.1-1,15.8-4.4,21.5,2.3c4.6,5.5-3.9,12.7-7.9,15.6
						c-3.4,2.5-7.3,4.2-11.5,5c-4.9,1.2-9.8,2.7-14.7,4c-9.1,2.3-17.6,6.6-26.4,10c-6,2.3-10.3,2.1-15.7-1.5
						C272.1,198.8,267.1,193.6,269.7,191.1z"/>
				</g>
				<g class="st1">
					<path class="st2" d="M352.5,150.4c-1.2,2.2-4.1,6.2-0.3,7.6c2.2,0.8,3.7-1,5.3-2.2c1.6-1.2,3.9-2.6,5-4.7
						c0.3-0.4,0.6-0.9,0.7-1.5c0.1-0.5,0.1-1.1-0.1-1.6s-0.4-1-0.8-1.4s-0.9-0.7-1.4-0.8c-4.5-2-6.6,2.3-9.1,5.3L352.5,150.4z"/>
				</g>
				<g class="st1">
					<path class="st2" d="M422.5,106.9c-4,4.1-6.3,8.9-5.7,14.7c0.6,5.8,4.5,6.9,9.2,4.5c1.4-0.6,2.8-1.3,4.1-2.1
						c1.3-1,2.1-3,3.1-4.3c2.3-2.8,3.5-6.4,3.4-10c0-3.6,0.4-7.4-0.5-10.9c-0.5-1.9-1.3-4.5-3-5.7c-2-1.3-3.5,0.4-5,1.6
						c-1.4,0.9-2.6,2.1-3.6,3.4c-1.6,3-2.8,6.2-3.6,9.4L422.5,106.9z"/>
				</g>
				<g class="st1">
					<path class="st2" d="M341.8,229.6c0.2-2.7,0.1-2.9,2.1-4.4c1.4-1.2,2.9-2.3,4.5-3.3c3-1.6,6.4-2.7,9.8-3
						c2.7-0.3,5.5,0.1,7.9,1.3c1.5,0.9,1.8,2.6,1.4,4.5c-0.5,2.6-3.1,4.2-5,5.7s-4.5,3.5-7,4.1c-2.9,0.9-6,1-9,0.4
						c-1.8-0.5-5.6-1.2-5.5-3.8L341.8,229.6z"/>
				</g>
				<g class="st1">
					<path class="st2" d="M376.8,204.7c1.8-2.5,2.9-4.7,5.5-6.3c1.2-0.7,4.1-2.9,5.6-2.9c0.6,0.1,1.2,0.4,1.6,0.8s0.7,1,0.9,1.6
						c0.2,1.3-1.1,2.9-1.7,4c-1.5,2.3-3.6,4-6.1,5.2c-1.1,0.6-2.4,0.7-3.6,0.4c-1.3-0.4-1.8-1.6-2.9-2L376.8,204.7z"/>
				</g>
				<g class="st1">
					<path class="st2" d="M237.6,99.1c-3.5,3.5-6.4,7.2-7.5,12.1c-0.3,0.7-0.3,1.5-0.1,2.2s0.6,1.4,1.2,1.9c1.9,1.6,4.2,0.8,6.4,0
						c6.1-2.1,11.9-5.7,17.1-9.2c4.9-3.2,11.3-4.1,15.1-8.7c2-2.5,4.1-5.3,2.2-8.6c-1.7-2.8-6-4-9-4.1c-4.4,0.1-8.7,1.2-12.5,3.4
						C245.5,90.9,241.1,94.6,237.6,99.1z"/>
				</g>
				<g class="st1">
					<path class="st2" d="M217.6,84.1c6.7-1.3,12.6-2.7,18.5-6.3c1.2-0.7,2.4-1.1,3.5-1.7s1.3-1.4,2.2-2.2c-0.6-2.7-8-1.1-9.7-0.4
						c-2.3,0.9-4.6,2.3-6.8,3.4c-1.2,0.5-2.3,1.2-3.4,1.9c-2.2,1.6-3.5,4.5-5,6.7L217.6,84.1z"/>
				</g>
			</g>
			<g class="st3">
				<g class="st3">
					<path class="st2" d="M427.5,234.5c-1.9,1.2-3.9,2.3-6,3.3c-3.4,1.4-6.5,3.3-9.8,4.8c-4,1.7-8.2,2.8-12.3,4.2
						c-5.8,1.9-11.3,4.4-16.5,7.4c-5.3,3.2-10.3,7.9-13,13.5c-1.5,3.2-2.2,7.6-0.3,10.8c1.1,2.1,2.8,3.8,4.9,4.8
						c3.5,1.6,6.8,0.6,10.3-0.3c4.4-1,8.7-2.5,12.7-4.5c2.1-1.1,4.2-2.4,6.3-3.6c2.1-1.1,4.7-2.1,7.1-3c1.8-0.8,3.7-1.4,5.6-2
						c2.3-0.8,4.5-1.9,6.4-3.4c3.8-2.8,7-6.3,9.4-10.4c2.9-5.3,4.5-10.6,3.5-16.6C434.9,235.2,431.5,232.9,427.5,234.5z"/>
				</g>
				<g class="st3">
					<path class="st2" d="M362.8,267.2c-1.3-1.8-2.2-1.6-4.3-1.5c-1.6,0.2-3.2,0.5-4.8,0.9c-7.9,1.7-16,2.5-23.8,4.5
						c-4.4,1-8.6,2.5-12.5,4.5c-4,2.1-8.1,4-12,6.4c-8.9,5.5-18.6,9.5-28.8,11.8c-6.4,1.3-12.7,2.6-19.1,3.8
						c-3.8,0.7-7.8,1.3-11.6,2.1c-3.8,0.8-7.6,1.9-11.5,2.8c-6.9,1.4-13.7,3.3-20.3,5.7c-6.7,2.5-13.6,4.9-18.9,10
						c-2.7,2.6-6.2,6.4-6.2,10.5c0.1,2.8,1.1,5.6,2.6,7.9c5.3,8.7,15.4,13.9,24.2,18.4c12.2,6.2,26.7,7,40.1,8.5
						c17.4,1.9,35.1,1,52.2-2.6c7.7-1.6,15.5-3.1,23.2-4.5c9.3-1.8,18.8-3,28.1-4.9c7.7-1.6,15.4-3.4,22.9-5.6
						c4.1-1.1,8.2-2.6,12.1-4.3c3.4-1.6,6.8-3.5,10-5.5c2.7-1.5,5.4-3.2,7.9-5.1c2.1-1.8,4-3.9,5.6-6.1c2.7-3.5,4.5-7.4,6.7-11.3
						c1.4-2.7,3-5.3,4.7-7.9c1.8-2.4,3.9-4.7,5.8-7.1c4.1-4.9,9-9.1,12.8-14.2c2.2-3,4.4-6.7,4.7-10.4c0.2-2.5,0.2-5.2-2.4-6.3
						c-2.6-1-5.4-1.3-8.2-0.9c-2.8,0.5-5.5,1.3-8.1,2.3c-4.7,1.3-9.2,3.1-13.5,5.4c-10.9,5.8-21.6,13.1-33.8,15.7
						c-5,1.1-10.1,1.6-14.9-0.4c-3.6-1.4-7.1-3.2-10.3-5.4c-4.2-3-2.9-6.7-1.1-10.8C361.1,271.7,363.4,267.7,362.8,267.2z"/>
				</g>
				<g class="st3">
					<path class="st2" d="M597.3,210.6c0,4.4-0.4,8.9-1.1,13.3c-0.3,2-0.6,4-0.9,5.9c-0.4,2.6-1.7,5-2.3,7.6
						c-1.1,4.7-3.3,8.7-5.3,13s-3.3,9-5.3,13.5c-5.5,12.5-8.7,25.8-14,38.4c-2.6,6.2-5,12.7-7.9,18.8c-2.6,5.5-5.8,10.8-8.5,16.2
						c-1,2-3.8,5.8-1.7,7.9c1.7,1.7,4.8,0.1,6.6-0.8c7.2-3.8,10.2-12.9,14.6-19.3c2.2-3.2,5.7-5.6,8-8.8c3-4.2,6.7-9.1,8.7-13.8
						c4.2-9.7,6.7-19.8,10.3-29.8c3-8.2,3.4-16.2,3.4-24.8c0-3.6,0.4-7.2-0.7-10.7C600.4,233.8,599.6,228.4,597.3,210.6z"/>
				</g>
				<g class="st3">
					<path class="st2" d="M584,223c-3,2.9-9.2,10.1-6.3,14.8c1.6,2.6,6.3,1.5,8-0.8c1.4-1.9,1.1-5.1,1.1-7.4c0-1.2,0.4-3.1,0-4.2
						c-0.4-1.1-1.6-1.3-1.8-2.5L584,223L584,223z"/>
				</g>
				<g class="st3">
					<path class="st2" d="M526,361c-3.9,2.3-7.6,4.8-11.1,7.6c-3.4,2.3-7,4.3-10.7,5.9c-9.4,4.5-19.4,7.6-29.7,9.3
						c-13.2,2.3-26.7,4.1-39.5,8.3c-9.7,3.2-19.4,6.6-29,10c-9.1,3.2-19.4,5.5-27.5,11c-2,1.3-4.7,3.4-4,6.1
						c1.1,4.3,10,4.5,13.1,4.6c9.5,0.4,19.1,0,28.5,0c4.5,0,9.1-0.3,13.6,0.2c5.6,0.6,11.3,0.6,17,0c7.1-0.6,14.5-0.5,21.4-2.6
						c13.2-4.2,26.3-9.2,39.2-14.3c11.6-4.6,28.4-14,27.4-28.5C534,372.4,530.2,363.6,526,361z"/>
				</g>
				<g class="st3">
					<path class="st2" d="M545,372.4c-1.9-4-2.4-5-0.4-8.6c1.3-2.3,5.3-5.7,8.2-5.7c5.9,0,6.1,6.7,4.8,10.8c-1.2,3.6-2.6,9-6.9,9.2
						c-0.7,0.1-1.4,0-2-0.1c-0.6-0.2-1.2-0.5-1.7-1c-1.4-1-3.3-4.3-4.8-4.6L545,372.4z"/>
				</g>
				<g class="st3">
					<path class="st2" d="M130.1,383.8c-1.1,4.5-1.7,8.6,0.5,12.9c3,6,9.7,10,15.8,12c3.9,1.1,7.8,1.7,11.9,1.8
						c4.5,0.2,9,0.9,13.5,1c6.7,0.1,13.4,0.6,20.1,1.6c3.7,0.5,7.3,1.6,11,2.1c2.9,0.3,5.7,0.8,8.5,1.4c6,1.4,12,1.4,18.1,2.3
						c6.4,0.8,12.9,0.6,19.3-0.4c5.5-0.8,11.4-1.6,14.1-6.9c2.1-4.2,0.6-6.5-3.1-9.4c-3.3-2.6-8.8-3.7-12.6-4.9
						c-5.9-2-11.7-3.8-17.8-5.3c-8.4-2-16.6-5-24.9-7.5c-17.1-5-33.6-12.1-51.5-13.7c-7.4-0.7-16.2-0.8-23.1,2.6
						c-2.2,1.2-3.9,3.2-4.7,5.5C123.6,382.4,125.4,384.5,130.1,383.8z"/>
				</g>
				<g class="st3">
					<path class="st2" d="M129.1,352.4c1,3.1,0.8,4.1,3.7,5c1.9,0.8,3.9,1,5.9,0.6c2.5-0.7,5.4-2.5,5.7-5.1c0.4-2.9-2.2-5-4.5-6.2
						c-4.7-2.5-8.4-2.3-10.8,2.9L129.1,352.4L129.1,352.4z"/>
				</g>
				<g class="st3">
					<path class="st2" d="M329.9,142.1c-0.1-1.7,0.2-3.4,1-4.9c0.9-2.1,2-4.2,3.3-6.1c0.9-1.3,1.5-2.8,2.3-4.2
						c1.2-1.9,2.5-3.7,3.5-5.7c1.5-2.5,3.3-4.9,5.3-7.1c1.3-1.5,2.4-3.1,3.3-4.8c0.8-1.4,1.9-2.5,2.6-4c1-1.7,1.7-3.8,2.6-5.6
						c0.9-2,2-3.9,3.2-5.7c0.8-1.4,1.7-2.7,2.9-3.8c0.9-0.9,1.8-1.7,2.8-2.4c2.3-1,3.5-0.2,4.7,1.9c1.8,3.7,2.7,7.9,2.5,12
						c-0.2,4.3-1,8.6-2.4,12.7c-1.1,2.8-2.5,5.6-4.1,8.2c-2.8,4.9-6.2,9.5-9.5,14.2c-1.9,2.7-5.2,5-7.9,7.1
						c-1.7,1.3-3.5,2.3-5.5,2.9c-1.1,0.4-2.7,1.1-4,0.9c-1.2-0.4-2.3-0.8-3.4-1.3C330.5,145.4,329.2,143,329.9,142.1z"/>
				</g>
				<g class="st3">
					<path class="st2" d="M319.5,145.9c-1.6,0.8-3.4,1.4-4.1,3.2c-0.2,0.5-0.5,1.5-0.2,2c1.3,1.9,5.9-0.6,6.9-1.7s2.2-2.9,1.2-4.3
						c-0.2-0.3-0.5-0.5-0.8-0.7s-0.7-0.3-1-0.3c-0.4,0-0.7,0-1.1,0.1c-0.3,0.1-0.6,0.3-0.9,0.5V145.9z"/>
				</g>
				<g class="st3">
					<path class="st2" d="M403.7,77.9c-1.1,0.5-2.1,1.2-3,2c-0.4,0.8-0.7,1.6-0.9,2.4c-1.1,3-1.9,6.2-2.2,9.3
						c-0.3,3.1-0.4,8.7,3.3,10C408,104.1,418.4,99,419,91c0.3-4.5-2.1-8.8-4.8-12.2c-1.3-1.8-2.8-3.5-4.5-5c-0.6-0.5-1.3-0.8-2-1
						s-1.5-0.3-2.2-0.2C402.9,73.1,401,75.6,403.7,77.9z"/>
				</g>
				<g class="st3">
					<path class="st2" d="M402.2,116.9c0-1.6,0-1.9,1-3c0.7-0.7,1.4-1.3,2.3-1.7c1.7-0.6,2.8,0.7,2.9,2.3c0.1,1.2,0.1,3.7-1,4.5
						s-5.5,0.1-5.3-1.6L402.2,116.9z"/>
				</g>
				<g class="st3">
					<path class="st2" d="M454.1,84.5c-0.7,3-0.6,6-1.2,9.1c-0.9,5-1.5,10-1.6,15c-0.1,2.6,0,5.2-0.1,7.8c-0.4,3.2-0.5,6.4-0.3,9.6
						c0.4,4.1,0.9,8.5,3.6,11.8c2,2.3,4.7,1.5,7.2,0.5c2-1,4-2.2,5.7-3.7c1.4-0.9,2.8-2,4.1-3.2c5.7-5.3,10.8-11.1,13.1-18.7
						c1.6-5.5,3.3-11.9,1.9-17.6c-0.7-3.7-2.4-7.1-4.8-9.9c-1.9-2.1-4.2-3.8-6.7-5c-2.1-1.1-4.4-1.2-6.6-1.7
						c-1.9-0.4-3.8-0.6-5.7-0.6c-1.8,0-3.5,0.2-5.3,0.5C453.7,79.1,452.8,84.1,454.1,84.5z"/>
				</g>
				<g class="st3">
					<path class="st2" d="M459.8,146.4c0.7-2.1,2.1-4.2,4.6-3.1c0.9,0.4,1.5,1.1,1.9,2c0.3,0.9,0.3,1.9,0,2.8
						c-0.3,0.6-0.9,1.2-1.6,1.4c-0.7,0.3-1.4,0.3-2.1,0.1c-0.9-0.4-1.7-1-2.3-1.8c-0.9-1.1-0.2-2,0-3.3L459.8,146.4z"/>
				</g>
				<g class="st3">
					<path class="st2" d="M466.5,197.3c-1.9,0.2-3.7,0.6-5.5,1.2c-0.2,0.4-0.4,0.8-0.7,1.2c-0.4,0.5-1.5,1.2-1.3,1.9
						c2.4,1,5.8-0.6,7.9-1.7c1.1-0.5,2.1-1.2,3-2c0.6-0.5,1.1-1.1,1.6-1.7c0.8-1.4,0-2.1-1.4-2.1s-4.9,1.1-5,2.9L466.5,197.3z"/>
				</g>
				<g class="st3">
					<path class="st2" d="M545.5,189.2c0,1.6-0.3,3.2-1.1,4.7c-0.7,1.7-1.6,3.7-1.3,5.6c0.7,4.5,6.9,3.6,10,3.2
						c3.7-0.5,7.3-1.3,10-4c2-1.7,3.4-4.1,3.7-6.8c0.7-4.8,1.8-12.8-5.3-12.7c-2.9,0.2-5.7,1.2-8.1,3c-1.6,1.1-3,2.5-4.2,4.1
						C547.6,188.2,545.8,189.8,545.5,189.2z"/>
				</g>
				<g class="st3">
					<path class="st2" d="M496,448c2.1-6.7,5.3-12.3,11.4-16.1c1.4-0.9,2.6-2,4.3-1.1c1.4,0.7,1.1,2.4,0.7,3.7
						c-0.8,2.1-2,4.1-3.5,5.9c-1.4,1.6-2.9,3.1-4.5,4.6c-0.9,1-2,1.7-3.3,2.1C499.3,447.1,497.6,447.4,496,448z"/>
				</g>
				<g class="st3">
					<path class="st2" d="M253.8,455.6c0.1-2.6,1.6-3.8,3.6-5.4c4.5-3.5,9.6-6.1,15.1-7.6c4.7-1.5,10.2-2.5,15.1-1.2
						c2.2,0.6,4.9,1.6,5.8,3.9c1.6,3.8-2.5,9.4-5.6,11.6c-3.8,2.6-9.4,3.5-13.8,4.8c-4.1,1.2-8.4,1.6-12.6,1.1
						c-1.5-0.1-3-0.4-4.5-0.8c-1.4-0.3-2.7-0.8-4.1-1.2c-1.2-0.6-2.7-1.6-2.8-3c0-0.8,0.2-1.7,0.6-2.4
						C251.3,453.9,252.9,453.7,253.8,455.6z"/>
				</g>
			</g>
			<g>
				<g>
					<path class="st4" d="M538.6,172c-1.6,1-4.5,2.5-4,4.9c0.3,1,0.8,2.1,1.2,3.1c0.3,0.9,0.5,1.9,0.6,2.8c0.2,1.6,0.8,3.1,1.8,4.4
						c0.7,0.8,1.5,0,2-0.8c0.6-0.8,1-1.7,1.1-2.6c0-1.2,0.2-2.5,0.4-3.7c0.1-0.5,0.5-0.9,0.6-1.3c0.1-0.7,0.1-1.4,0.1-2
						c0-1.1-0.4-2.1-1.1-3C540.5,172.9,539.6,172.3,538.6,172z"/>
				</g>
				<g>
					<path class="st4" d="M513.7,305.8c-0.3,0.1-0.6,0.3-0.8,0.5c-0.1,0.2-0.1,0.3-0.1,0.5c-0.1,0.8,1,1.1,1.5,1.2
						c0.7,0.2,1.5,0.3,2.3,0.2c0.8-0.1,1.5-0.3,2.2-0.7c0.5-0.3,0.9-0.7,1.3-1.2c0.3-0.5,0.6-1,0.7-1.6c0-0.7-0.2-1.4-0.6-2
						c-0.4-0.6-0.9-1.1-1.6-1.4c-0.5-0.4-1.2-0.6-1.9-0.7s-1.3,0-2,0.3c-0.4,0.3-0.8,0.7-1,1.1c-0.1,0.4-0.1,0.8-0.2,1.2
						c-0.1,0.4-0.5,0.9-0.4,1.5C513.2,305.2,513.4,305.6,513.7,305.8z"/>
				</g>
				<g>
					<path class="st4" d="M522.2,308.4c0-0.2,0-0.3,0.1-0.5s0.2-0.3,0.3-0.3c0.1-0.1,0.3-0.2,0.4-0.2c0.2,0,0.3,0,0.5,0.1
						c0.1,0.1,0.2,0.2,0.3,0.3c0.1,0.1,0.1,0.3,0.2,0.4c0,0.1,0,0.3,0,0.4s-0.1,0.3-0.2,0.4c-0.1,0.1-0.3,0.2-0.5,0.3
						c-0.2,0.1-0.4,0.1-0.6,0c-0.2-0.1-0.4-0.2-0.5-0.4c-0.1-0.2-0.2-0.4-0.2-0.6L522.2,308.4z"/>
				</g>
				<g>
					<path class="st4" d="M543,276.7c-0.5,0-1,0.3-1.3,0.7c-0.1,0.1-0.2,0.2-0.3,0.4s-0.1,0.3-0.1,0.4c0.1,1,0.6,1.8,1.4,2.5
						c0.2,0.2,0.5,0.3,0.8,0.4s0.6,0,0.9,0c0.5-0.2,1-0.6,1.5-1c0.4-0.3,0.8-0.6,1.2-1c0.4-0.2,0.7-0.6,0.8-1s0.2-0.9,0.2-1.3
						c-0.1-0.4-0.3-0.8-0.6-1.2c-0.3-0.3-0.7-0.6-1.1-0.7c-0.6-0.1-1.2-0.1-1.7,0.2C544,275.3,543.5,275.3,543,276.7z"/>
				</g>
				<g>
					<path class="st4" d="M539.1,279.5c0.4,0.2,0.8,0.4,1.1,0.7c-0.1,0.2,0.1,0.4,0,0.6s-0.7,0.1-1,0s-0.6-0.4-0.7-0.7
						c0-0.1-0.3-0.6,0-0.6H539.1z"/>
				</g>
				<g>
					<path class="st4" d="M492.8,296.6c-0.4,0.5-0.9,1-0.6,1.7c0.2,0.3,0.4,0.5,0.7,0.6c0.3,0.1,0.6,0.1,1,0c0.3,0,0.7-0.1,0.8-0.5
						c0.1-0.4,0.2-0.8,0.3-1.2c0.3-0.9,1.3-1.3,0.8-2.4c-0.1-0.2-0.3-0.4-0.5-0.6s-0.5-0.3-0.7-0.3c-0.9,0-1.5,0.8-2,1.5
						L492.8,296.6z"/>
				</g>
				<g>
					<path class="st4" d="M367.3,386.1c0.3-0.6,0.6-1.6,1.6-2c0.6-0.2,1.2-0.2,1.8,0c1.5,0.2,2.9,0.7,2,2.1
						c-0.7,0.8-1.6,1.3-2.6,1.5c-0.9,0.1-2.5-0.1-2.4-0.9L367.3,386.1z"/>
				</g>
				<g>
					<path class="st4" d="M455.7,78.8c-0.3,1.3-0.8,3,0.7,4c1,0.6,2.6,0,3.5-0.7c1.5-1.3,2.5-3.1,2.9-5.1c0.2-1.7-1.9-3.6-3.4-3.8
						c-3.2-0.4-5,4.7-5.1,7.1L455.7,78.8z"/>
				</g>
				<g>
					<path class="st4" d="M448.5,369.6c-1,1.5-1.4,3.3-1.1,5.1c0.1,1.1,0.1,2.5,1.5,2.9c3.3,0.8,6.7-5.3,7.6-7.3
						c0.8-1.6,1.1-3.3,1-5.1c-0.1-1-0.8-2.8-2-3.2c-0.8-0.1-1.6-0.1-2.4,0.2c-0.8,0.3-1.5,0.7-2,1.3c-2.5,2.5-2.3,5.3-3.6,8
						L448.5,369.6z"/>
				</g>
				<g>
					<path class="st4" d="M446.8,369.3c-0.9,0.1-1.7,0.3-2.5,0.7c-0.4,0.2-1.1,0.6-1.2,1s0.2,1,0.6,1.3c0.2,0.1,0.4,0.2,0.6,0.2
						s0.4,0,0.6-0.1c0.3-0.2,0.6-0.4,0.8-0.7c0.4-0.4,0.7-0.8,1-1.3c0.2-0.2,0.3-0.4,0.4-0.7c0.1-0.4-0.2-0.5-0.2-0.7L446.8,369.3z"
						/>
				</g>
				<g>
					<path class="st4" d="M443,384l1.1,0.3c-0.1,0.4,0,0.8-0.5,1.1c-0.5,0.2-1,0.3-1.5,0.2c-0.5-0.1-0.8-0.4-0.7-0.8
						s0.7-0.7,1.2-0.9L443,384z"/>
				</g>
				<g>
					<path class="st4" d="M387.2,396.3c0,0.4,0,0.7,0.4,0.8c0.4,0.1,0.8,0.1,1.2,0.1c0.4-0.1,0.7-0.3,1-0.5c0.8-0.8,1.5-2.1,1-2.9
						c-0.3-0.3-0.7-0.5-1.1-0.5s-0.8,0-1.2,0.3c-0.4,0.3-0.8,0.6-1.1,1c-0.2,0.2-0.3,0.5-0.4,0.8
						C387.2,395.6,387.2,395.9,387.2,396.3L387.2,396.3z"/>
				</g>
				<g>
					<path class="st4" d="M328.6,301.2c-0.4,0.4-0.6,0.5-0.7,1c-0.1,0.3-0.1,0.5-0.1,0.8s0.1,0.5,0.2,0.8c0.9,1,2,1.7,3.4,2
						c0.5,0.1,0.9,0.2,1.4,0.1s0.9-0.3,1.3-0.6c0.5-0.3,0.9-0.7,1.2-1.2c0.3-0.5,0.5-1,0.6-1.6c0.1-0.5,0.1-1.1-0.1-1.6
						s-0.6-1-1-1.3c-0.9-0.7-1.9-1.2-3.1-1.4c-0.4-0.1-0.9,0-1.3,0.1s-0.8,0.4-1.1,0.7C328.6,299.5,327.8,300.5,328.6,301.2z"/>
				</g>
				<g>
					<path class="st4" d="M337.2,305.1c0-0.3,0-0.7,0.3-0.8c0.3,0,0.6,0,0.8,0.2c0.3,0.1,0.5,0.3,0.7,0.5c0.3,0.3,0.4,0.8,0.4,1.2
						c-0.1,0.3-0.3,0.5-0.6,0.7c-0.2,0.2-0.4,0.3-0.6,0.3s-0.5,0-0.7-0.2c-0.3-0.2-0.9-0.5-0.8-0.9L337.2,305.1z"/>
				</g>
				<g>
					<path class="st4" d="M171.8,271.4c-2.5-3.4-3.7-7.5-3.4-11.6c0.1-1.8-0.1-5,2.4-4.7c3.4,0.3,5.1,5.6,6.1,8.2
						c1.4,4,2.8,7.9,2.3,12.1c-0.7,5.8-8.3-5.7-9.1-6.8L171.8,271.4z"/>
				</g>
				<g>
					<path class="st4" d="M179.1,252.2c-0.6,3.4,0.9,8.1,4.5,9.2c1.3,0.4,1.8-0.4,2.5-1.6c0.4-0.6,0.6-1.2,0.8-1.9
						c0.1-0.7,0.1-1.4-0.1-2c-0.4-0.9-0.9-1.7-1.6-2.5c-0.4-0.4-0.7-0.9-0.9-1.4c-0.3-0.5-0.2-1-0.6-1.4c-1-1.1-4.9-2.1-4.5,0.6
						L179.1,252.2L179.1,252.2z"/>
				</g>
				<g class="st5">
					<path class="st6" d="M216.2,490.6c0.8-2.1,2.3-4,4.2-5.2c2.2-1.5,4.6-2.5,7.1-3.2c2.4-0.6,4.9-0.4,7.2,0.6
						c2.2,1.2,4.2,3,6.3,4.3c1.9,1.3,3.8,2,5.5,3.6c1.5,1.5,2.7,3.4,3.4,5.4c1.2,3.1,2,7.7,0.7,10.9c-1.2,2.8-2.9,2.9-5.7,2.8
						c-4-0.1-7.8-3.3-10.3-6.2c-1.1-1.5-2.4-2.9-3.8-4.2c-1.8-1.4-3.7-2.7-5.6-4c-1.9-1-3.7-2.2-5.4-3.4
						C219.1,491.3,216.7,489.5,216.2,490.6z"/>
				</g>
				<g>
					<path class="st4" d="M284.7,310.9c-0.3,1.5-0.6,2.1,0.4,2.8c0.3,0.2,0.7,0.4,1.1,0.4s0.8-0.1,1.1-0.4c0.8-0.5,2.6-2.2,2.4-3.2
						c-0.5-2.1-5.8-2.2-5.5,0.4L284.7,310.9z"/>
				</g>
				<g>
					<path class="st4" d="M384.4,379c-0.9-4,3.2-9.7,7.7-12.9c6.5-4.6,16.4-5.6,23.6-4.6c6.1,0.8,11.1,4,12.3,8.4
						c0.3,1.2,0.1,2.4,0.4,3.6c0.2,0.9,0.5,1.4-0.9,2.2c-3.3,1.9-8.5,3-12.2,3.6c-4.1,0.8-8.3,1.3-12.5,1.3
						c-3.5-0.1-6.9-0.6-10.4-0.7c-1.7,0-3.4-0.1-5-0.4C386.8,379.1,384.7,379.4,384.4,379z"/>
				</g>
				<g>
					<path class="st4" d="M417.9,354.6c0.6,0.8,0.6,1.2,1.8,1.3c0.9,0,1.8-0.3,2.6-0.8c1-0.6,2.3-1.9,1.8-2.6
						c-0.8-1.4-6.6-0.6-6,1.3L417.9,354.6z"/>
				</g>
				<g>
					<path class="st4" d="M508.2,278.2c0.2-1.1,0.6-2.1,1.2-3.1c0.3-0.2,0.6-0.3,0.9-0.4s0.7-0.1,1,0c0.6,0,1.2,0.2,1.7,0.5
						s1,0.7,1.3,1.2c0.6,0.5,1,1.2,1.3,1.9C516.5,282.6,509.2,280.8,508.2,278.2L508.2,278.2z"/>
				</g>
			</g>
			
				<radialGradient id="SVGID_3_" cx="84.4301" cy="1.1436" r="0.9999" gradientTransform="matrix(231.2982 -80.3345 68.3671 67.3367 -19205.707 7142.0942)" gradientUnits="userSpaceOnUse">
				<stop  offset="0" style="stop-color:#1D1D1B"/>
				<stop  offset="1" style="stop-color:#000000;stop-opacity:0"/>
			</radialGradient>
			<path class="st7" d="M463,497.4C590.7,453,663.5,386.7,625.4,349.3c-38-37.4-172.4-31.8-300.2,12.6
				C197.5,406.2,124.8,472.6,162.8,510S335.2,541.8,463,497.4z"/>
		</g>
	</g>
</g>
<g>
	<g>
		<defs>
			
				<rect id="SVGID_4_" x="575" y="9.6" transform="matrix(0.4741 -0.8805 0.8805 0.4741 240.0022 574.8713)" width="52.4" height="153.9"/>
		</defs>
		<clipPath id="SVGID_5_">
			<use xlink:href="#SVGID_4_"  style="overflow:visible;"/>
		</clipPath>
		<g class="st8">
			
				<linearGradient id="SVGID_6_" gradientUnits="userSpaceOnUse" x1="668.8128" y1="351.5349" x2="629.3877" y2="330.3088" gradientTransform="matrix(1 0 0 1 -1.082898e-05 -228)">
				<stop  offset="0" style="stop-color:#000000;stop-opacity:0"/>
				<stop  offset="1" style="stop-color:#FFFFFF"/>
			</linearGradient>
			<path class="st9" d="M624.8,111.2l39.8,20l7.3-16.9l-37.4-20.6C634.5,93.7,626.5,106,624.8,111.2z"/>
			
				<linearGradient id="SVGID_7_" gradientUnits="userSpaceOnUse" x1="644.6625" y1="315.4407" x2="618.2668" y2="301.2295" gradientTransform="matrix(1 0 0 1 -1.082898e-05 -228)">
				<stop  offset="0" style="stop-color:#7E7E7D"/>
				<stop  offset="1" style="stop-color:#1D1D1B"/>
			</linearGradient>
			<path class="st10" d="M618.1,76.4l2.4-7.4c0,0,13.1,5.6,22.6,21.3l-0.3,0.6l-18.4-10.6l-0.8,1.3L618.1,76.4z"/>
			
				<linearGradient id="SVGID_8_" gradientUnits="userSpaceOnUse" x1="625.1643" y1="351.6524" x2="598.7878" y2="337.451" gradientTransform="matrix(1 0 0 1 -1.082898e-05 -228)">
				<stop  offset="0" style="stop-color:#7E7E7D"/>
				<stop  offset="1" style="stop-color:#1D1D1B"/>
			</linearGradient>
			<path class="st11" d="M601.5,107.4l-5,6.3c0,0,11.9,7.8,30.2,7.1l0.3-0.6l-18.9-9.5l0.7-1.4L601.5,107.4z"/>
			
				<radialGradient id="SVGID_9_" cx="78.9096" cy="0.5265" r="1" gradientTransform="matrix(16.1478 -29.9923 54.1267 29.1418 -738.4005 2412.8953)" gradientUnits="userSpaceOnUse">
				<stop  offset="0" style="stop-color:#1D1D1B"/>
				<stop  offset="0.77" style="stop-color:#1D1D1B"/>
				<stop  offset="0.96" style="stop-color:#1D1D1B"/>
			</radialGradient>
			<path class="st12" d="M537.4,52.9c-4.7,8.8,8.8,33.8,28.8,43.2c20.1,9.4,53.5,15.7,53.5,15.7l6.2-11.2l5.9-11.3
				c0,0-23.7-24.4-42.6-36C570.4,41.7,542.1,44.2,537.4,52.9z"/>
			<path class="st13" d="M619.7,111.8c0,0,5.8-13.4,12.1-22.5C631.8,89.3,626.3,102.5,619.7,111.8z"/>
			
				<radialGradient id="SVGID_10_" cx="59.6216" cy="3.9619" r="1" gradientTransform="matrix(4.3405 -8.0618 7.1924 3.8724 248.5598 517.6763)" gradientUnits="userSpaceOnUse">
				<stop  offset="0" style="stop-color:#1D1D1B"/>
				<stop  offset="0.77" style="stop-color:#1D1D1B"/>
				<stop  offset="0.96" style="stop-color:#1D1D1B"/>
			</radialGradient>
			<path class="st14" d="M539.8,69.5c0,0,2.8-14.5,14.1-23.7c0,0-13.1,0.8-16.5,7.2C534.2,58.6,539.8,69.5,539.8,69.5z"/>
			<path class="st15" d="M554,45.9c-10.6,8.5-14,23.5-14,23.6l-0.3-0.1c0-0.2,3.4-15.3,14.1-23.8L554,45.9z"/>
			<path class="st16" d="M536.5,56.3l3.9-6.4C540.3,49.9,536.2,51.9,536.5,56.3z"/>
			
				<linearGradient id="SVGID_11_" gradientUnits="userSpaceOnUse" x1="537.6313" y1="281.3438" x2="534.334" y2="279.5688" gradientTransform="matrix(1 0 0 1 -1.082898e-05 -228)">
				<stop  offset="0" style="stop-color:#FFFF18"/>
				<stop  offset="1" style="stop-color:#FF7400"/>
			</linearGradient>
			<path class="st17" d="M536.6,55.2c0.5-1.3,1.1-2.6,1.9-3.8c0,0-3.5-0.9-4.2,0.1C533.6,52.6,536.6,55.2,536.6,55.2z"/>
			
				<radialGradient id="SVGID_12_" cx="71.0676" cy="1.1031" r="1" gradientTransform="matrix(7.6676 -14.2415 25.8302 13.9069 33.6262 1087.8289)" gradientUnits="userSpaceOnUse">
				<stop  offset="0" style="stop-color:#1D1D1B"/>
				<stop  offset="0.77" style="stop-color:#1D1D1B"/>
				<stop  offset="0.96" style="stop-color:#1D1D1B"/>
			</radialGradient>
			<path class="st18" d="M598,106.8c0,0,4.1-22.3,16.1-34.3c7.1,6.2,17.7,16.8,17.7,16.8s-5.8,8-12.1,22.5
				C619.7,111.8,608.5,110.2,598,106.8z"/>
			<path class="st19" d="M551,61.2c-3.6,8.2,2.6,18.9,10.6,23.7c7.9,4.7,17-0.1,21.1-8.3s2.2-17.8-7.2-21.6
				C567,51.5,555.1,52.1,551,61.2z"/>
			<path class="st20" d="M549.7,60.6c-3.6,8.2,2.6,18.9,10.6,23.7c7.9,4.7,17-0.1,21.1-8.3s2.2-17.8-7.2-21.6
				C565.7,50.8,553.8,51.4,549.7,60.6z"/>
			<path class="st21" d="M548.8,60.1c-3.6,8.2,2.6,18.9,10.6,23.7c7.9,4.7,17-0.1,21.1-8.3s2.2-17.8-7.2-21.6
				C564.8,50.3,552.9,50.9,548.8,60.1z"/>
			<path class="st22" d="M552,61.1c-3.4,7.3,2,14.8,8.2,18.6c6.2,3.7,13.3-0.1,16.5-6.5s1.8-13.9-5.6-17
				C564.5,53.4,555.6,53.4,552,61.1z"/>
			<linearGradient id="SVGID_13_" gradientUnits="userSpaceOnUse" x1="551.9905" y1="68.0916" x2="578.0851" y2="68.0916">
				<stop  offset="0" style="stop-color:#7C7C7C"/>
				<stop  offset="1" style="stop-color:#B7B7B7"/>
			</linearGradient>
			<path class="st23" d="M578,65.2c0.3,2.7-0.2,5.4-1.4,7.8c-3.1,6.1-10.5,10.1-16.4,6.5c-2-1.2-3.8-2.8-5.2-4.6
				c-2.8-3.7-4.1-8.4-1.9-13.3c3.2-7.3,11.9-7.3,18.2-4.7C575.4,58.6,577.5,61.8,578,65.2z"/>
			<path class="st24" d="M581.4,75.9l-0.1,0.2l22.6,12.2l0.1-0.2L581.4,75.9z"/>
			<path class="st25" d="M598.1,106.8h-0.2c5.5-25.1,16-34.3,16.1-34.4l0.1,0.1C614.1,72.7,603.6,81.9,598.1,106.8z"/>
			<path class="st24" d="M589.7,104.5h-0.2c0-0.1-0.7-9.1,5.1-21.4l0.2,0.1C589,95.4,589.7,104.4,589.7,104.5z"/>
			<path class="st26" d="M621.7,94.3l-9.9-4.9l0.8-3.1l10.3,5.9L621.7,94.3z"/>
			
				<radialGradient id="SVGID_14_" cx="47.9885" cy="2.8082" r="1" gradientTransform="matrix(3.0121 -5.5946 10.147 5.4631 455.7801 355.5881)" gradientUnits="userSpaceOnUse">
				<stop  offset="2.000000e-02" style="stop-color:#30312F"/>
				<stop  offset="0.38" style="stop-color:#3F403F"/>
				<stop  offset="0.99" style="stop-color:#404140"/>
			</radialGradient>
			<path class="st27" d="M620.9,110c0,0,4.3-10.3,10.3-19.4l4.1,2.9l-10.3,18L620.9,110z"/>
			<path class="st28" d="M623,110.8c0.1-3,1-6,2.5-8.6c2.5-4.3,8.9-9.3,8.9-9.3l-3.1-2.3c0,0-6.6,9.9-10.3,19.4L623,110.8z"/>
			<path class="st24" d="M558.1,58.7c2-0.6,4-0.9,6-0.8l-0.1-2c0,0-3.4-0.3-5.6,1.3L558.1,58.7z"/>
			<path class="st24" d="M563.4,78.5l2.9-0.1l0.1,1.7L564,80L563.4,78.5z"/>
			<path class="st29" d="M542.4,74.1c0,0,0.3-15.8,15.4-28.7l-3.9,0.3c0,0-9.4,7-14.1,23.7L542.4,74.1z"/>
			
				<radialGradient id="SVGID_15_" cx="595.2793" cy="313.2708" r="0.7961" gradientTransform="matrix(1 0 0 1 -1.082898e-05 -228)" gradientUnits="userSpaceOnUse">
				<stop  offset="2.000000e-02" style="stop-color:#262626"/>
				<stop  offset="0.29" style="stop-color:#4C4C4C"/>
				<stop  offset="0.77" style="stop-color:#282728"/>
				<stop  offset="1" style="stop-color:#3A393A"/>
			</radialGradient>
			<path class="st30" d="M595.8,84.5c0.1,0,0.2,0.1,0.2,0.2c0.1,0.1,0.1,0.2,0.1,0.3c0,0.1,0,0.2,0,0.3c0,0.1,0,0.2-0.1,0.3
				c-0.1,0.2-0.3,0.3-0.5,0.4s-0.4,0-0.6-0.1c-0.2-0.1-0.3-0.3-0.4-0.5c-0.1-0.2,0-0.4,0.1-0.6c0-0.1,0.1-0.2,0.2-0.2
				c0.1-0.1,0.2-0.1,0.3-0.1s0.2,0,0.3,0S595.7,84.5,595.8,84.5z"/>
			<radialGradient id="SVGID_16_" cx="595.35" cy="85.3001" r="0.6472" gradientUnits="userSpaceOnUse">
				<stop  offset="2.000000e-02" style="stop-color:#262626"/>
				<stop  offset="0.29" style="stop-color:#4C4C4C"/>
				<stop  offset="0.77" style="stop-color:#282728"/>
				<stop  offset="1" style="stop-color:#3A393A"/>
			</radialGradient>
			<path class="st31" d="M595.7,84.7c0.1,0.1,0.3,0.2,0.3,0.4c0,0.2,0,0.3-0.1,0.5c-0.1,0.1-0.2,0.3-0.4,0.3c-0.2,0.1-0.3,0-0.5,0
				c-0.1-0.1-0.3-0.2-0.3-0.4c0-0.2,0-0.3,0.1-0.5c0.1-0.1,0.2-0.3,0.4-0.3S595.6,84.6,595.7,84.7z"/>
			
				<radialGradient id="SVGID_17_" cx="592.0001" cy="311.4333" r="0.825" gradientTransform="matrix(1 0 0 1 -1.082898e-05 -228)" gradientUnits="userSpaceOnUse">
				<stop  offset="2.000000e-02" style="stop-color:#262626"/>
				<stop  offset="0.29" style="stop-color:#4C4C4C"/>
				<stop  offset="0.77" style="stop-color:#282728"/>
				<stop  offset="1" style="stop-color:#3A393A"/>
			</radialGradient>
			<path class="st32" d="M592.4,82.7c0.2,0.1,0.3,0.3,0.4,0.5c0.1,0.2,0,0.4-0.1,0.6s-0.3,0.3-0.5,0.4s-0.4,0-0.6-0.1
				c-0.2-0.1-0.3-0.3-0.4-0.5c-0.1-0.2,0-0.4,0.1-0.6c0-0.1,0.1-0.2,0.2-0.2c0.1-0.1,0.2-0.1,0.3-0.1s0.2,0,0.3,0
				C592.2,82.6,592.3,82.6,592.4,82.7z"/>
			<radialGradient id="SVGID_18_" cx="591.95" cy="83.4223" r="0.6363" gradientUnits="userSpaceOnUse">
				<stop  offset="2.000000e-02" style="stop-color:#262626"/>
				<stop  offset="0.29" style="stop-color:#4C4C4C"/>
				<stop  offset="0.77" style="stop-color:#282728"/>
				<stop  offset="1" style="stop-color:#3A393A"/>
			</radialGradient>
			<path class="st33" d="M592.3,82.8c0.1,0.1,0.3,0.2,0.3,0.4c0,0.2,0,0.3-0.1,0.5c-0.1,0.1-0.2,0.3-0.4,0.3c-0.2,0.1-0.3,0-0.5,0
				c-0.1,0-0.1-0.1-0.2-0.2c-0.1-0.1-0.1-0.1-0.1-0.2s0-0.2,0-0.2c0-0.1,0-0.2,0.1-0.2c0-0.1,0.1-0.1,0.2-0.2
				c0.1-0.1,0.1-0.1,0.2-0.1c0.1,0,0.2,0,0.2,0C592.1,82.8,592.2,82.8,592.3,82.8z"/>
			<radialGradient id="SVGID_19_" cx="562.4" cy="82.3903" r="0.7951" gradientUnits="userSpaceOnUse">
				<stop  offset="2.000000e-02" style="stop-color:#262626"/>
				<stop  offset="0.29" style="stop-color:#4C4C4C"/>
				<stop  offset="0.77" style="stop-color:#282728"/>
				<stop  offset="1" style="stop-color:#3A393A"/>
			</radialGradient>
			<path class="st34" d="M563.1,82.8c0.2-0.4,0.1-0.9-0.3-1.1c-0.4-0.2-0.9-0.1-1.1,0.3c-0.2,0.4-0.1,0.9,0.3,1.1
				C562.4,83.3,562.8,83.1,563.1,82.8z"/>
			
				<radialGradient id="SVGID_20_" cx="-296.2775" cy="51.7284" r="1" gradientTransform="matrix(0.2995 -0.5563 0.5508 0.2966 622.9603 -97.4405)" gradientUnits="userSpaceOnUse">
				<stop  offset="2.000000e-02" style="stop-color:#262626"/>
				<stop  offset="0.29" style="stop-color:#4C4C4C"/>
				<stop  offset="0.77" style="stop-color:#282728"/>
				<stop  offset="1" style="stop-color:#3A393A"/>
			</radialGradient>
			<path class="st35" d="M562.7,81.8c0.1,0.1,0.3,0.2,0.3,0.4c0,0.2,0,0.3-0.1,0.5c-0.1,0.1-0.2,0.3-0.4,0.3c-0.2,0.1-0.3,0-0.5,0
				c-0.1-0.1-0.3-0.2-0.3-0.4c0-0.2,0-0.3,0.1-0.5c0-0.1,0.1-0.1,0.2-0.2c0.1-0.1,0.1-0.1,0.2-0.1c0.1,0,0.2,0,0.2,0
				C562.5,81.8,562.6,81.8,562.7,81.8z"/>
			<radialGradient id="SVGID_21_" cx="553.2708" cy="75.7001" r="0.7855" gradientUnits="userSpaceOnUse">
				<stop  offset="2.000000e-02" style="stop-color:#262626"/>
				<stop  offset="0.29" style="stop-color:#4C4C4C"/>
				<stop  offset="0.77" style="stop-color:#282728"/>
				<stop  offset="1" style="stop-color:#3A393A"/>
			</radialGradient>
			<path class="st36" d="M553.6,75.1c0.2,0.1,0.3,0.3,0.4,0.5c0.1,0.2,0,0.4-0.1,0.6c0,0.1-0.1,0.2-0.2,0.2
				c-0.1,0.1-0.2,0.1-0.3,0.1s-0.2,0-0.3,0s-0.2,0-0.3-0.1s-0.2-0.1-0.2-0.2c-0.1-0.1-0.1-0.2-0.1-0.3c0-0.1,0-0.2,0-0.3
				c0-0.1,0-0.2,0.1-0.3c0.1-0.2,0.3-0.3,0.5-0.4C553.1,75,553.4,75,553.6,75.1z"/>
			
				<radialGradient id="SVGID_22_" cx="-296.2775" cy="51.7283" r="1" gradientTransform="matrix(0.2995 -0.5563 0.5508 0.2966 613.7495 -103.9945)" gradientUnits="userSpaceOnUse">
				<stop  offset="2.000000e-02" style="stop-color:#262626"/>
				<stop  offset="0.29" style="stop-color:#4C4C4C"/>
				<stop  offset="0.77" style="stop-color:#282728"/>
				<stop  offset="1" style="stop-color:#3A393A"/>
			</radialGradient>
			<path class="st37" d="M553.5,75.3c0.1,0.1,0.3,0.2,0.3,0.4c0,0.2,0,0.3-0.1,0.5c-0.1,0.1-0.2,0.3-0.4,0.3s-0.3,0-0.5,0
				c-0.1-0.1-0.3-0.2-0.3-0.4c0-0.2,0-0.3,0.1-0.5c0.1-0.1,0.2-0.3,0.4-0.3C553.1,75.2,553.3,75.2,553.5,75.3z"/>
			<radialGradient id="SVGID_23_" cx="573.5793" cy="80.0333" r="0.8145" gradientUnits="userSpaceOnUse">
				<stop  offset="2.000000e-02" style="stop-color:#262626"/>
				<stop  offset="0.29" style="stop-color:#4C4C4C"/>
				<stop  offset="0.77" style="stop-color:#282728"/>
				<stop  offset="1" style="stop-color:#3A393A"/>
			</radialGradient>
			<path class="st38" d="M574.1,79.3c0.1,0,0.2,0.1,0.2,0.2c0.1,0.1,0.1,0.2,0.1,0.3c0,0.1,0,0.2,0,0.3c0,0.1,0,0.2-0.1,0.3
				c-0.1,0.2-0.3,0.3-0.5,0.4s-0.4,0-0.6-0.1c-0.2-0.1-0.3-0.3-0.4-0.5c-0.1-0.2,0-0.4,0.1-0.6c0-0.1,0.1-0.2,0.2-0.2
				c0.1-0.1,0.2-0.1,0.3-0.1s0.2,0,0.3,0C573.9,79.2,574,79.2,574.1,79.3z"/>
			
				<radialGradient id="SVGID_24_" cx="-296.2775" cy="51.7283" r="1" gradientTransform="matrix(0.2995 -0.5563 0.5508 0.2966 634.3135 -99.8378)" gradientUnits="userSpaceOnUse">
				<stop  offset="2.000000e-02" style="stop-color:#262626"/>
				<stop  offset="0.29" style="stop-color:#4C4C4C"/>
				<stop  offset="0.77" style="stop-color:#282728"/>
				<stop  offset="1" style="stop-color:#3A393A"/>
			</radialGradient>
			<path class="st39" d="M574,79.4c0.1,0.1,0.3,0.2,0.3,0.4c0,0.2,0,0.3-0.1,0.5c-0.1,0.1-0.2,0.3-0.4,0.3c-0.2,0.1-0.3,0-0.5,0
				c-0.1-0.1-0.3-0.2-0.3-0.4c0-0.2,0-0.3,0.1-0.5c0.1-0.1,0.2-0.3,0.4-0.3S573.8,79.4,574,79.4z"/>
			<radialGradient id="SVGID_25_" cx="580.2793" cy="69.5486" r="0.8069" gradientUnits="userSpaceOnUse">
				<stop  offset="2.000000e-02" style="stop-color:#262626"/>
				<stop  offset="0.29" style="stop-color:#4C4C4C"/>
				<stop  offset="0.77" style="stop-color:#282728"/>
				<stop  offset="1" style="stop-color:#3A393A"/>
			</radialGradient>
			<path class="st40" d="M580.8,68.8c0.1,0,0.2,0.1,0.2,0.2c0.1,0.1,0.1,0.2,0.1,0.3c0,0.1,0,0.2,0,0.3c0,0.1,0,0.2-0.1,0.3
				c-0.1,0.2-0.3,0.3-0.5,0.4s-0.4,0-0.6-0.1c-0.2-0.1-0.3-0.3-0.4-0.5c-0.1-0.2,0-0.4,0.1-0.6c0-0.1,0.1-0.2,0.2-0.2
				c0.1-0.1,0.2-0.1,0.3-0.1s0.2,0,0.3,0C580.6,68.7,580.7,68.8,580.8,68.8z"/>
			
				<radialGradient id="SVGID_26_" cx="-296.2775" cy="51.7284" r="1" gradientTransform="matrix(0.2995 -0.5563 0.5508 0.2966 641.0313 -110.3005)" gradientUnits="userSpaceOnUse">
				<stop  offset="2.000000e-02" style="stop-color:#262626"/>
				<stop  offset="0.29" style="stop-color:#4C4C4C"/>
				<stop  offset="0.77" style="stop-color:#282728"/>
				<stop  offset="1" style="stop-color:#3A393A"/>
			</radialGradient>
			<path class="st41" d="M580.7,69c0.1,0.1,0.3,0.2,0.3,0.4c0,0.2,0,0.3-0.1,0.5c-0.1,0.1-0.2,0.3-0.4,0.3c-0.2,0.1-0.3,0-0.5,0
				c-0.1,0-0.1-0.1-0.2-0.2c-0.1-0.1-0.1-0.1-0.1-0.2s0-0.2,0-0.2c0-0.1,0-0.2,0.1-0.2c0-0.1,0.1-0.1,0.2-0.2
				c0.1-0.1,0.1-0.1,0.2-0.1c0.1,0,0.2,0,0.2,0C580.5,68.9,580.6,68.9,580.7,69z"/>
			<radialGradient id="SVGID_27_" cx="577.9" cy="58.6223" r="0.8112" gradientUnits="userSpaceOnUse">
				<stop  offset="2.000000e-02" style="stop-color:#262626"/>
				<stop  offset="0.29" style="stop-color:#4C4C4C"/>
				<stop  offset="0.77" style="stop-color:#282728"/>
				<stop  offset="1" style="stop-color:#3A393A"/>
			</radialGradient>
			<path class="st42" d="M578.6,59c0.2-0.4,0.1-0.9-0.3-1.1c-0.4-0.2-0.9-0.1-1.1,0.3c-0.2,0.4-0.1,0.9,0.3,1.1
				C577.9,59.6,578.4,59.4,578.6,59z"/>
			
				<radialGradient id="SVGID_28_" cx="-296.2775" cy="51.7283" r="1" gradientTransform="matrix(0.2995 -0.5563 0.5508 0.2966 638.4985 -121.1966)" gradientUnits="userSpaceOnUse">
				<stop  offset="2.000000e-02" style="stop-color:#262626"/>
				<stop  offset="0.29" style="stop-color:#4C4C4C"/>
				<stop  offset="0.77" style="stop-color:#282728"/>
				<stop  offset="1" style="stop-color:#3A393A"/>
			</radialGradient>
			<path class="st43" d="M578.2,58.1c0.1,0.1,0.3,0.2,0.3,0.4s0,0.3-0.1,0.5c-0.1,0.1-0.2,0.3-0.4,0.3c-0.2,0.1-0.3,0-0.5,0
				c-0.1-0.1-0.3-0.2-0.3-0.4s0-0.3,0.1-0.5c0.1-0.1,0.2-0.3,0.4-0.3C577.8,58,578,58,578.2,58.1z"/>
			<radialGradient id="SVGID_29_" cx="564.7793" cy="53.1708" r="0.7961" gradientUnits="userSpaceOnUse">
				<stop  offset="2.000000e-02" style="stop-color:#262626"/>
				<stop  offset="0.29" style="stop-color:#4C4C4C"/>
				<stop  offset="0.77" style="stop-color:#282728"/>
				<stop  offset="1" style="stop-color:#3A393A"/>
			</radialGradient>
			<path class="st44" d="M565.3,52.4c0.1,0,0.2,0.1,0.2,0.2c0.1,0.1,0.1,0.2,0.1,0.3s0,0.2,0,0.3s0,0.2-0.1,0.3
				c-0.1,0.2-0.3,0.3-0.5,0.4c-0.2,0.1-0.4,0-0.6-0.1c-0.2-0.1-0.3-0.3-0.4-0.5c-0.1-0.2,0-0.4,0.1-0.6c0-0.1,0.1-0.2,0.2-0.2
				c0.1-0.1,0.2-0.1,0.3-0.1s0.2,0,0.3,0C565.1,52.4,565.2,52.4,565.3,52.4z"/>
			
				<radialGradient id="SVGID_30_" cx="-296.2775" cy="51.7283" r="1" gradientTransform="matrix(0.2995 -0.5563 0.5508 0.2966 625.5195 -126.7236)" gradientUnits="userSpaceOnUse">
				<stop  offset="2.000000e-02" style="stop-color:#262626"/>
				<stop  offset="0.29" style="stop-color:#4C4C4C"/>
				<stop  offset="0.77" style="stop-color:#282728"/>
				<stop  offset="1" style="stop-color:#3A393A"/>
			</radialGradient>
			<path class="st45" d="M565.2,52.6c0.1,0.1,0.3,0.2,0.3,0.4s0,0.3-0.1,0.5c-0.1,0.1-0.2,0.3-0.4,0.3s-0.3,0-0.5,0
				c-0.1-0.1-0.3-0.2-0.3-0.4s0-0.3,0.1-0.5c0.1-0.1,0.2-0.3,0.4-0.3C564.9,52.5,565.1,52.5,565.2,52.6z"/>
			<radialGradient id="SVGID_31_" cx="555.4793" cy="55.3333" r="0.8145" gradientUnits="userSpaceOnUse">
				<stop  offset="2.000000e-02" style="stop-color:#262626"/>
				<stop  offset="0.29" style="stop-color:#4C4C4C"/>
				<stop  offset="0.77" style="stop-color:#282728"/>
				<stop  offset="1" style="stop-color:#3A393A"/>
			</radialGradient>
			<path class="st46" d="M556,54.6c0.1,0,0.2,0.1,0.2,0.2c0.1,0.1,0.1,0.2,0.1,0.3s0,0.2,0,0.3s0,0.2-0.1,0.3
				c-0.1,0.2-0.3,0.3-0.5,0.4c-0.2,0.1-0.4,0-0.6-0.1c-0.2-0.1-0.3-0.3-0.4-0.5c-0.1-0.2,0-0.4,0.1-0.6c0-0.1,0.1-0.2,0.2-0.2
				c0.1-0.1,0.2-0.1,0.3-0.1s0.2,0,0.3,0C555.8,54.5,555.9,54.5,556,54.6z"/>
			
				<radialGradient id="SVGID_32_" cx="-296.2775" cy="51.7283" r="1" gradientTransform="matrix(0.2995 -0.5563 0.5508 0.2966 616.1525 -124.6022)" gradientUnits="userSpaceOnUse">
				<stop  offset="2.000000e-02" style="stop-color:#262626"/>
				<stop  offset="0.29" style="stop-color:#4C4C4C"/>
				<stop  offset="0.77" style="stop-color:#282728"/>
				<stop  offset="1" style="stop-color:#3A393A"/>
			</radialGradient>
			<path class="st47" d="M555.9,54.7c0.1,0.1,0.3,0.2,0.3,0.4s0,0.3-0.1,0.5c-0.1,0.1-0.2,0.3-0.4,0.3s-0.3,0-0.5,0
				c-0.1-0.1-0.3-0.2-0.3-0.4s0-0.3,0.1-0.5c0.1-0.1,0.2-0.3,0.4-0.3C555.6,54.6,555.7,54.6,555.9,54.7z"/>
			<radialGradient id="SVGID_33_" cx="549.5708" cy="64.0001" r="0.7855" gradientUnits="userSpaceOnUse">
				<stop  offset="2.000000e-02" style="stop-color:#262626"/>
				<stop  offset="0.29" style="stop-color:#4C4C4C"/>
				<stop  offset="0.77" style="stop-color:#282728"/>
				<stop  offset="1" style="stop-color:#3A393A"/>
			</radialGradient>
			<path class="st48" d="M549.9,63.4c0.2,0.1,0.3,0.3,0.4,0.5c0.1,0.2,0,0.4-0.1,0.6c0,0.1-0.1,0.2-0.2,0.2
				c-0.1,0.1-0.2,0.1-0.3,0.1s-0.2,0-0.3,0s-0.2,0-0.3-0.1c-0.1,0-0.2-0.1-0.2-0.2c-0.1-0.1-0.1-0.2-0.1-0.3c0-0.1,0-0.2,0-0.3
				s0-0.2,0.1-0.3c0.1-0.2,0.3-0.3,0.5-0.4C549.5,63.3,549.8,63.3,549.9,63.4z"/>
			
				<radialGradient id="SVGID_34_" cx="-296.2775" cy="51.7284" r="1" gradientTransform="matrix(0.2995 -0.5563 0.5508 0.2966 610.1153 -115.7919)" gradientUnits="userSpaceOnUse">
				<stop  offset="2.000000e-02" style="stop-color:#262626"/>
				<stop  offset="0.29" style="stop-color:#4C4C4C"/>
				<stop  offset="0.77" style="stop-color:#282728"/>
				<stop  offset="1" style="stop-color:#3A393A"/>
			</radialGradient>
			<path class="st49" d="M549.9,63.5c0.1,0,0.1,0.1,0.2,0.2c0.1,0.1,0.1,0.1,0.1,0.2c0,0.1,0,0.2,0,0.2c0,0.1,0,0.2-0.1,0.2
				c0,0.1-0.1,0.1-0.2,0.2c-0.1,0.1-0.1,0.1-0.2,0.1c-0.1,0-0.2,0-0.2,0c-0.1,0-0.2,0-0.2-0.1c-0.1-0.1-0.3-0.2-0.3-0.4
				c0-0.2,0-0.3,0.1-0.5c0.1-0.1,0.2-0.3,0.4-0.3C549.5,63.4,549.7,63.4,549.9,63.5z"/>
			<path class="st13" d="M627,120.2l0.3-0.5l-19-9.5l-0.3,0.5L627,120.2z"/>
			<path class="st13" d="M624.4,80.3l-0.3,0.5l18.5,10.4l0.2-0.4L624.4,80.3z"/>
			
				<linearGradient id="SVGID_35_" gradientUnits="userSpaceOnUse" x1="637.7432" y1="328.2341" x2="608.414" y2="312.4429" gradientTransform="matrix(1 0 0 1 -1.082898e-05 -228)">
				<stop  offset="0" style="stop-color:#7E7E7D"/>
				<stop  offset="1" style="stop-color:#1D1D1B"/>
			</linearGradient>
			<path class="st50" d="M608.3,84.8l1-1.9l28.3,17.6l-0.7,1.3L608.3,84.8z"/>
			<linearGradient id="SVGID_36_" gradientUnits="userSpaceOnUse" x1="608.3" y1="93.3501" x2="636.9" y2="93.3501">
				<stop  offset="0" style="stop-color:#7E7E7D"/>
				<stop  offset="1" style="stop-color:#1D1D1B"/>
			</linearGradient>
			<path class="st51" d="M608.3,84.8l5.8,4.8l22.8,12.3L608.3,84.8z"/>
			<path class="st52" d="M610.1,83.5l21.7,5.8l-2.7,4.4l4.6,2.6l-0.8,1.5L610.1,83.5z"/>
			<path class="st24" d="M547.2,78.6c0,0-2.1-0.9-2.7-2.9l0.6-1c0.8,1.1,1.6,2.2,2.3,3.4L547.2,78.6z"/>
			<g>
				<path class="st24" d="M609.2,69.8l-7.7-6.6l0.3-0.5l7.7,6.5L609.2,69.8z"/>
			</g>
			
				<linearGradient id="SVGID_37_" gradientUnits="userSpaceOnUse" x1="572.9471" y1="275.4189" x2="573.894" y2="273.6598" gradientTransform="matrix(1 0 0 1 -1.082898e-05 -228)">
				<stop  offset="0" style="stop-color:#FFFF18"/>
				<stop  offset="1" style="stop-color:#FF7400"/>
			</linearGradient>
			<path class="st53" d="M571.4,46.6c0,0,1.1-3.6,3.6,0.8L571.4,46.6z"/>
			
				<linearGradient id="SVGID_38_" gradientUnits="userSpaceOnUse" x1="551.0109" y1="314.9373" x2="551.9011" y2="313.2838" gradientTransform="matrix(1 0 0 1 -1.082898e-05 -228)">
				<stop  offset="0" style="stop-color:#FFFF18"/>
				<stop  offset="1" style="stop-color:#FF7400"/>
			</linearGradient>
			<path class="st54" d="M550.4,84.5c0,0-0.7,3.5,2.5,2.5L550.4,84.5z"/>
			<g class="st55">
				<path class="st13" d="M621.1,108.4c0,0-30.4-5.5-51.5-12.5v1c0,0,31.7,12,50.3,14.4L621.1,108.4z"/>
			</g>
			<g>
				<path class="st13" d="M599.7,61.8l-4.9-3.9l0.3-0.5l4.9,3.9L599.7,61.8z"/>
			</g>
			<g>
				<path class="st13" d="M590.1,100.6c0,0,0.5-6.9,2.9-12.5C593,88.1,591.3,94.1,590.1,100.6z"/>
			</g>
			<g>
				<path class="st13" d="M583.6,76.9l19.9,10.5C603.5,87.4,596.5,83.2,583.6,76.9z"/>
			</g>
			<g>
				<path class="st13" d="M599.4,102.3c0,0,3.3-15.4,12.7-26.9C612.1,75.4,604.7,83.7,599.4,102.3z"/>
			</g>
			<path class="st13" d="M549,71.3c0,0,1.7-1.4-1.1-4.3C548.1,68.5,548.4,69.9,549,71.3z"/>
			<g>
				<path class="st13" d="M581.3,73.8c0,0,2.1-4.5,0.2-12.2C581.5,61.6,584.1,67,581.3,73.8z"/>
			</g>
			<g>
				<path class="st13" d="M576.6,73.4c0,0,4.1-2.7,1.8-7.3C578.3,66.1,579,69.1,576.6,73.4z"/>
			</g>
			<g class="st56">
				<g class="st56">
					<path class="st13" d="M584.7,78.7c0,0.3,0,0.9,0.4,1c0.2,0,0.4,0.1,0.5,0.1c0.2,0,0.3,0.1,0.5,0.1c0.2,0.1,0.5,0.1,0.8,0.1
						c0.2,0,0.1-0.2,0-0.3c-0.1-0.1-0.2-0.3-0.3-0.4c-0.2-0.1-0.3-0.2-0.5-0.3c-0.1-0.1-0.1-0.1-0.2-0.2c-0.1-0.1-0.2-0.1-0.3-0.2
						c-0.2-0.1-0.3-0.1-0.5-0.1C584.9,78.5,584.8,78.6,584.7,78.7z"/>
				</g>
				<g class="st56">
					<path class="st13" d="M587,81.2C587,81.2,586.9,81.2,587,81.2l-0.2-0.2c0.2-0.3,0.9-0.1,0.9,0.3s-0.6,0.2-0.7,0L587,81.2z"/>
				</g>
				<g class="st56">
					<path class="st13" d="M587.9,89.7c0-0.2,0-0.4,0.1-0.6c0.1-0.1,0.3-0.2,0.5-0.3c0.2,0,0.5,0,0.7,0c0.1,0,0.2,0,0.3,0.1
						c0.3,0.3,0.4,0.9,0.3,1.3c0,0.2-0.1,0.5-0.2,0.7c-0.1,0.1-0.1,0.3-0.2,0.5c0,0.1-0.1,0.3-0.2,0.4c-0.1,0.1-0.2,0.1-0.3,0.2
						s-0.3,0.1-0.5,0.1s-0.3,0-0.5-0.1c-0.5-0.3-0.6-1.1-0.6-1.7C587.4,90,587.5,89.3,587.9,89.7z"/>
				</g>
				<g class="st56">
					<path class="st13" d="M588.1,87.7c0.1,0.1,0.1,0.2,0.3,0.1c0.1,0,0.1-0.1,0.1-0.1s0.1-0.1,0.1-0.2c0-0.2-0.1-0.6-0.4-0.6
						c-0.1,0-0.4,0.1-0.5,0.2s-0.1,0.3,0,0.4c0,0.1,0.1,0.3,0.3,0.3L588.1,87.7z"/>
				</g>
				<g class="st56">
					<path class="st13" d="M596.7,83.6c0.1,0.1,0.1,0.1,0.2,0.2c0.2,0.1,0.4,0.2,0.6,0.3c0.4,0.2,0.7,0.5,1.1,0.7
						c0.3,0.1,0.6,0.3,0.9,0.3c0.2,0.1,0.3,0.1,0.5,0.1l-0.1-0.1c-0.1-0.1-0.2-0.2-0.3-0.3c-0.2-0.2-0.3-0.5-0.5-0.7L599,84
						c0-0.1,0-0.1-0.1-0.2c0-0.1-0.1-0.2-0.2-0.3c-0.2-0.2-0.4-0.4-0.7-0.5c-0.1,0-0.2-0.1-0.3-0.1c-0.1-0.1-0.2-0.1-0.3-0.1
						c-0.2-0.1-0.4-0.1-0.7-0.1s-0.7,0-0.9,0.2c-0.1,0.1,0,0.2,0.1,0.3c0.1,0.1,0.2,0.2,0.4,0.3C596.5,83.5,596.7,83.7,596.7,83.6z"
						/>
				</g>
				<g class="st56">
					<path class="st13" d="M595.1,82.4c-0.1-0.1-0.2-0.3-0.1-0.4c0.1-0.1,0.3,0,0.4,0.1C595.6,82.3,595.2,82.5,595.1,82.4
						L595.1,82.4z"/>
				</g>
				<g class="st56">
					<path class="st13" d="M598.1,80.7c0.1,0.1,0.2,0.2,0.3,0.2s0.2,0,0.2,0c0.1,0,0.1-0.1,0.2-0.2c0.1-0.2,0.2-0.4,0-0.6
						c-0.1-0.1-0.2-0.1-0.3-0.1s-0.2,0-0.3,0s-0.1,0.1-0.2,0.2C597.9,80.4,597.9,80.5,598.1,80.7L598.1,80.7z"/>
				</g>
				<g class="st56">
					<path class="st13" d="M608.5,79.3c0-0.5,0.1-0.9,0.2-1.3c0.1-0.4,0.3-0.7,0.5-1.1c0.2-0.5,0.3-1,0.4-1.6
						c0.1-0.5,0.3-0.9,0.6-1.3c0.1-0.1,0.3-0.3,0.5-0.4s0.4-0.1,0.6-0.1c0.2,0,0.5,0.1,0.7,0.1c0.1,0.1,0.2,0.1,0.3,0.1
						s0.1,0,0.2,0.1c0.1,0.1,0.1,0.1,0,0.2c-0.1,0.2-0.2,0.3-0.3,0.4c-0.3,0.2-0.5,0.4-0.6,0.6c-0.2,0.2-0.4,0.4-0.5,0.7l-0.5,0.7
						c-0.1,0.2-0.3,0.4-0.4,0.6c-0.1,0.2-0.3,0.4-0.4,0.6c-0.1,0.2-0.2,0.4-0.3,0.5s-0.1,0.2-0.2,0.3c0,0.1-0.1,0.2-0.2,0.2
						c0,0.1-0.1,0.2-0.1,0.3C608.7,79.1,608.6,79.2,608.5,79.3z"/>
				</g>
				<g class="st56">
					<path class="st13" d="M608.2,76.2c0,0.1,0,0.2,0.1,0.2c0,0,0.1,0,0.1,0.1c0.2,0,0.3-0.2,0.4-0.3c0.2-0.4,0.3-0.8,0.2-1.2
						c0-0.1-0.1-0.3-0.2-0.4s-0.2-0.2-0.3-0.3c-0.4-0.1-0.8,0.2-1,0.4s-0.5,0.7-0.4,1c0,0.1,0.1,0.2,0.2,0.3c0.1,0,0.2,0.1,0.3,0.1
						c0.1,0.1,0.2,0.2,0.3,0.2C608,76.3,608.1,76.2,608.2,76.2z"/>
				</g>
				<g class="st56">
					<path class="st13" d="M609.4,74L609.4,74c-0.1,0-0.1-0.1-0.2-0.1v-0.1c0,0,0-0.1,0.1-0.1l0.1-0.1h0.1h0.1c0,0,0.1,0,0.1,0.1
						c0,0,0,0.1,0,0.2s0,0.1,0,0.2s-0.1,0.1-0.1,0.1C609.5,74.1,609.4,74.1,609.4,74L609.4,74z"/>
				</g>
				<g class="st56">
					<path class="st13" d="M603.1,67.1c0,0.1,0,0.3,0.1,0.4c0,0,0,0.1,0.1,0.1h0.1c0.3,0,0.5-0.1,0.7-0.3c0.1-0.1,0.1-0.1,0.1-0.2
						s0.1-0.2,0.1-0.2c0-0.2-0.1-0.3-0.1-0.4s-0.1-0.2-0.2-0.4c0-0.1-0.1-0.2-0.2-0.3c-0.1-0.1-0.2-0.1-0.3-0.1s-0.2,0.1-0.3,0.1
						c-0.1,0.1-0.2,0.2-0.2,0.3c-0.1,0.1-0.1,0.3-0.1,0.5C602.8,66.7,602.8,66.9,603.1,67.1z"/>
				</g>
				<g class="st56">
					<path class="st13" d="M603.5,68.2c0.1-0.1,0.2-0.2,0.3-0.3h0.1c0,0.1,0,0.2-0.1,0.3c0,0.1-0.1,0.1-0.2,0.2c0,0-0.2,0-0.1,0
						V68.2z"/>
				</g>
				<g class="st56">
					<path class="st13" d="M604.5,81.4c0.1,0.1,0.2,0.3,0.4,0.2c0.1,0,0.2-0.1,0.2-0.2s0.1-0.2,0.1-0.3c0-0.1,0-0.2-0.1-0.2
						c-0.1-0.1-0.2-0.1-0.3-0.1c-0.2-0.1-0.2-0.4-0.5-0.3c-0.1,0-0.1,0.1-0.2,0.1c-0.1,0-0.1,0.1-0.1,0.2c-0.1,0.2,0.1,0.4,0.2,0.6
						L604.5,81.4z"/>
				</g>
				<g class="st56">
					<path class="st13" d="M603.1,101.8c-0.1,0.3-0.1,0.5,0,0.8h0.1c0.1,0.1,0.1,0.1,0.2,0.2c0.1,0,0.2,0.1,0.3,0.1
						c0.6,0,0.8-0.5,1-0.9s0.6-1-0.1-1.2c-0.3-0.1-0.9-0.2-1.2,0c-0.2,0.1-0.2,0.2-0.2,0.4C603,101.3,603,101.6,603.1,101.8
						L603.1,101.8z"/>
				</g>
				<g class="st56">
					<path class="st13" d="M606.7,96.8c-0.1-0.1-0.3-0.4-0.2-0.6s0.2-0.2,0.3-0.2c0.3-0.1,0.6-0.3,0.8,0.1c0,0.1,0,0.2,0,0.3
						c0,0.1-0.1,0.2-0.1,0.3c-0.1,0.1-0.4,0.3-0.6,0.2L606.7,96.8z"/>
				</g>
				<g class="st56">
					<path class="st13" d="M578.3,52.6c0.3,0.4,0.3,0.4,0.7,0.5c0.3,0.1,0.6,0.1,1,0.1c0.4-0.1,0.6-0.5,0.8-0.8
						c0.1-0.1,0.2-0.2,0.2-0.3s0.1-0.3,0-0.4c-0.1-0.3-0.2-0.7-0.4-1c-0.3-0.4-0.7-0.8-1.2-1.1s-1-0.4-1.5-0.5c-0.7,0-1.5,0-2,0.5
						c-0.2,0.2-0.4,0.5-0.4,0.8c-0.1,0.3-0.1,0.6,0,0.9c0.1,0.3,0.3,0.5,0.5,0.7s0.5,0.3,0.8,0.4l0.4,0.1c0.2,0.1,0.3,0.2,0.5,0.3
						C577.9,52.9,578.1,52.8,578.3,52.6z"/>
				</g>
				<g class="st56">
					<path class="st13" d="M579.1,54.3c0.5-0.2,0.4-0.2,0.7,0c0.2,0.1,0.2,0,0.4,0.1c0.1,0.1,0.1,0.2,0.1,0.3s0,0.2-0.1,0.3
						s-0.5,0.2-0.6,0.2s-0.2,0-0.2-0.1c-0.1,0-0.1-0.1-0.2-0.2L579.1,54.3z"/>
				</g>
				<g class="st56">
					<path class="st13" d="M560.7,88.5c0.2,0.2,0.5,0.5,0.9,0.3c0.3-0.2,0.3-0.6,0.3-0.8c-0.1-0.5-0.4-0.9-0.8-1.2
						c-0.3-0.3-1,0-1.2,0.3c-0.5,0.7,0.4,1.6,0.9,2L560.7,88.5z"/>
				</g>
				<g class="st56">
					<path class="st13" d="M563.6,90.7c-0.1,0-0.4,0-0.5,0v-0.1c0-0.1-0.1-0.2-0.1-0.2s0-0.2,0-0.3c0-0.2,0.2-0.3,0.3-0.4
						s0.3-0.2,0.5-0.2c0.1,0,0.2,0,0.3,0.1s0.2,0.2,0.2,0.3c0,0.2,0,0.3,0,0.5c-0.1,0.1-0.2,0.3-0.3,0.3L563.6,90.7z"/>
				</g>
				<g class="st56">
					<path class="st13" d="M617.6,79.6c0.4,0.5,0.9,0.8,1.5,1c0.4,0.1,0.9,0.3,1.2,0c0.8-0.7-0.7-2.3-1.2-2.8
						c-0.4-0.4-1-0.7-1.5-0.9c-0.3-0.1-1.1-0.2-1.4,0c-0.4,0.3-0.4,0.9-0.2,1.3c0.4,0.9,1.4,1.3,2.1,2L617.6,79.6z"/>
				</g>
				<g class="st56">
					<path class="st13" d="M617.2,80c-0.1,0.2-0.2,0.5-0.2,0.7c0,0.1,0,0.3,0.1,0.4c0.1,0,0.2,0.1,0.3,0.1s0.2,0,0.3,0
						s0.1-0.1,0.2-0.1c0,0,0.1-0.1,0.1-0.2s-0.1-0.2-0.1-0.3c-0.1-0.2-0.2-0.3-0.3-0.4c0-0.1-0.1-0.1-0.2-0.2c-0.1-0.1-0.2,0-0.3,0
						H617.2z"/>
				</g>
				<g class="st56">
					<path class="st13" d="M621.5,82.9l0.3-0.2c0.1,0.1,0.3,0.1,0.3,0.3c0,0.1-0.1,0.3-0.2,0.4c0,0.1-0.1,0.1-0.2,0.1
						c-0.1,0-0.1,0-0.2,0C621.3,83.3,621.3,83.1,621.5,82.9L621.5,82.9z"/>
				</g>
				<g class="st56">
					<path class="st13" d="M620.3,99.6c0,0.1,0.1,0.1,0.2,0.1c0.1,0,0.1,0,0.2,0c0.1,0,0.2-0.1,0.3-0.2s0.1-0.2,0.1-0.4
						c-0.1-0.4-0.3-0.9-0.7-1c-0.2-0.1-0.6,0.1-0.6,0.4c0,0.2,0,0.3,0.1,0.5C619.8,99.3,620,99.5,620.3,99.6L620.3,99.6z"/>
				</g>
				<g class="st56">
					<path class="st13" d="M555.2,50.7c0,0.1,0,0.2,0.2,0.3c0.1,0.1,0.3,0.2,0.4,0.2c0.4-0.1,0.7-0.3,1-0.6c0.1-0.1,0.2-0.2,0.2-0.4
						c0-0.1,0.1-0.3,0-0.4c0-0.2-0.1-0.3-0.1-0.5c-0.1-0.1-0.2-0.3-0.3-0.4c-0.1-0.1-0.3-0.2-0.4-0.2c-0.2,0-0.3,0-0.5,0.1
						c-0.3,0.1-0.6,0.3-0.8,0.6c-0.1,0.1-0.1,0.2-0.2,0.3c0,0.1,0,0.3,0,0.4C554.7,50.5,554.9,50.8,555.2,50.7z"/>
				</g>
				<g class="st56">
					<path class="st13" d="M557.4,49c-0.1,0-0.2-0.1-0.2-0.2c0-0.1,0.1-0.1,0.2-0.2c0.1-0.1,0.1-0.1,0.2-0.1c0.1,0,0.3,0,0.4,0.1
						c0.1,0.1,0.1,0.2,0.1,0.2c0,0.1,0,0.1,0,0.2c0,0.1-0.1,0.1-0.1,0.1c-0.1,0-0.3,0.2-0.4,0.1L557.4,49z"/>
				</g>
				<g class="st56">
					<path class="st13" d="M543,50.2c0.1,0.1,0.3,0.1,0.4,0.1c0.3,0,0.5-0.1,0.7-0.2c0.3-0.2,0.6-0.4,0.7-0.7c0-0.1,0-0.3,0-0.4
						c0-0.1-0.1-0.2-0.2-0.3c-0.3-0.2-0.6-0.3-0.9-0.2c-0.3,0-0.5,0.1-0.8,0.3c-0.2,0.2-0.4,0.4-0.5,0.6C542.2,50,543,50.4,543,50.2
						z"/>
				</g>
				<g class="st56">
					<path class="st13" d="M546.3,48.9c-0.1,0-0.2,0-0.3,0c0-0.1-0.1-0.2-0.1-0.3s0.1-0.2,0.2-0.3c0.1,0,0.1-0.1,0.2-0.1
						s0.1,0,0.2,0c0.1,0.1,0.1,0.1,0.1,0.3c0,0.1,0,0.1-0.1,0.2C546.5,48.8,546.4,48.9,546.3,48.9L546.3,48.9z"/>
				</g>
			</g>
			
				<linearGradient id="SVGID_39_" gradientUnits="userSpaceOnUse" x1="599.9553" y1="329.9062" x2="598.3472" y2="329.0401" gradientTransform="matrix(1 0 0 1 -1.082898e-05 -228)">
				<stop  offset="0" style="stop-color:#8DC7FF"/>
				<stop  offset="0.32" style="stop-color:#5C4D86"/>
			</linearGradient>
			<path class="st57" d="M599.5,100.9c0.4,0.2,0.7,0.7,0.5,1s-0.7,0.4-1.1,0.2c-0.4-0.2-0.7-0.7-0.5-1
				C598.5,100.7,599,100.6,599.5,100.9z"/>
			<path class="st13" d="M599.4,101c0.4,0.2,0.5,0.5,0.4,0.8s-0.5,0.3-0.9,0.1c-0.4-0.2-0.5-0.5-0.4-0.8
				C598.7,100.8,599.1,100.8,599.4,101z"/>
			
				<linearGradient id="SVGID_40_" gradientUnits="userSpaceOnUse" x1="610.9321" y1="305.5094" x2="609.3243" y2="304.6432" gradientTransform="matrix(1 0 0 1 -1.082898e-05 -228)">
				<stop  offset="0" style="stop-color:#8DC7FF"/>
				<stop  offset="0.32" style="stop-color:#5C4D86"/>
			</linearGradient>
			<path class="st58" d="M610.5,76.5c0.2,0.1,0.4,0.2,0.4,0.4c0.1,0.2,0.1,0.4,0,0.6s-0.3,0.3-0.5,0.3s-0.4,0-0.6-0.1
				c-0.2-0.1-0.4-0.2-0.4-0.4s-0.1-0.4,0-0.6s0.3-0.3,0.5-0.3C610,76.3,610.3,76.3,610.5,76.5z"/>
			<path class="st13" d="M610.4,76.6c0.2,0.1,0.3,0.2,0.4,0.4c0.1,0.2,0.1,0.3,0,0.5c-0.1,0.1-0.3,0.2-0.4,0.3c-0.2,0-0.3,0-0.5-0.1
				s-0.3-0.2-0.4-0.4s-0.1-0.3,0-0.5c0.1-0.1,0.3-0.2,0.4-0.3C610.1,76.5,610.2,76.5,610.4,76.6z"/>
			
				<linearGradient id="SVGID_41_" gradientUnits="userSpaceOnUse" x1="604.7872" y1="316.6239" x2="603.1793" y2="315.7582" gradientTransform="matrix(1 0 0 1 -1.082898e-05 -228)">
				<stop  offset="0" style="stop-color:#8DC7FF"/>
				<stop  offset="0.32" style="stop-color:#5C4D86"/>
			</linearGradient>
			<path class="st59" d="M604.8,88.6c0.2-0.4,0.1-1-0.4-1.2c-0.4-0.2-1-0.1-1.2,0.4c-0.2,0.4-0.1,1,0.4,1.2
				C604,89.2,604.5,89.1,604.8,88.6z"/>
			<path class="st13" d="M604.3,87.6c0.2,0.1,0.3,0.2,0.3,0.4s0,0.4-0.1,0.6s-0.2,0.3-0.4,0.4s-0.4,0-0.6-0.1
				c-0.2-0.1-0.3-0.2-0.3-0.4c-0.1-0.2,0-0.4,0.1-0.6s0.2-0.3,0.4-0.4C604,87.4,604.2,87.5,604.3,87.6z"/>
			
				<radialGradient id="SVGID_42_" cx="41.9827" cy="-10.6676" r="0.9997" gradientTransform="matrix(0.6753 -5.3414 5.275 0.6669 632.0649 319.4052)" gradientUnits="userSpaceOnUse">
				<stop  offset="0" style="stop-color:#FFFFFF"/>
				<stop  offset="9.000000e-02" style="stop-color:#E7E7E7"/>
				<stop  offset="0.23" style="stop-color:#BBBABA"/>
				<stop  offset="0.36" style="stop-color:#A4A3A3"/>
				<stop  offset="0.5" style="stop-color:#FFFFFF"/>
				<stop  offset="0.63" style="stop-color:#504F4E"/>
				<stop  offset="0.76" style="stop-color:#120B00"/>
				<stop  offset="0.89" style="stop-color:#040300"/>
				<stop  offset="1" style="stop-color:#000000"/>
			</radialGradient>
			<path class="st60" d="M604.8,82.6c0.7,0.1,1.4,0.3,2,0.7c0.6,0.3,1.1,0.8,1.6,1.4c0.4,0.6,0.7,1.2,0.9,1.9
				c0.2,0.7,0.2,1.4,0.1,2.1c-0.2,1.4-0.9,2.7-2,3.6s-2.5,1.3-3.9,1.1c-0.7-0.1-1.4-0.3-2-0.7c-0.6-0.3-1.1-0.8-1.6-1.4
				c-0.4-0.6-0.7-1.2-0.9-1.9c-0.2-0.7-0.2-1.4-0.1-2.1c0.2-1.4,0.9-2.7,2-3.6C602,82.9,603.4,82.4,604.8,82.6z"/>
			
				<radialGradient id="SVGID_43_" cx="30.8307" cy="-13.371" r="1" gradientTransform="matrix(0.5388 -4.2617 4.2087 0.5321 612.4573 184.8854)" gradientUnits="userSpaceOnUse">
				<stop  offset="0" style="stop-color:#FFFFFF"/>
				<stop  offset="9.000000e-02" style="stop-color:#E7E7E7"/>
				<stop  offset="0.23" style="stop-color:#BBBABA"/>
				<stop  offset="0.36" style="stop-color:#A4A3A3"/>
				<stop  offset="0.5" style="stop-color:#FFFFFF"/>
				<stop  offset="0.63" style="stop-color:#504F4E"/>
				<stop  offset="0.76" style="stop-color:#120B00"/>
				<stop  offset="0.89" style="stop-color:#040300"/>
				<stop  offset="1" style="stop-color:#000000"/>
			</radialGradient>
			<path class="st61" d="M573.4,42.2c0.6,0.1,1.1,0.2,1.6,0.5s0.9,0.6,1.3,1.1c0.3,0.4,0.6,0.9,0.7,1.5c0.1,0.5,0.2,1.1,0.1,1.7
				c-0.1,1.1-0.7,2.1-1.6,2.8c-0.9,0.7-2,1-3.1,0.9c-0.6-0.1-1.1-0.2-1.6-0.5s-0.9-0.6-1.3-1.1c-0.3-0.4-0.6-0.9-0.7-1.5
				c-0.1-0.5-0.2-1.1-0.1-1.7c0.1-1.1,0.7-2.1,1.6-2.8C571.1,42.4,572.3,42,573.4,42.2z"/>
			
				<radialGradient id="SVGID_44_" cx="30.8307" cy="-13.371" r="1" gradientTransform="matrix(0.5388 -4.2617 4.2087 0.5321 576.3381 191.4314)" gradientUnits="userSpaceOnUse">
				<stop  offset="0" style="stop-color:#FFFFFF"/>
				<stop  offset="9.000000e-02" style="stop-color:#E7E7E7"/>
				<stop  offset="0.23" style="stop-color:#BBBABA"/>
				<stop  offset="0.36" style="stop-color:#A4A3A3"/>
				<stop  offset="0.5" style="stop-color:#FFFFFF"/>
				<stop  offset="0.63" style="stop-color:#504F4E"/>
				<stop  offset="0.76" style="stop-color:#120B00"/>
				<stop  offset="0.89" style="stop-color:#040300"/>
				<stop  offset="1" style="stop-color:#000000"/>
			</radialGradient>
			<path class="st62" d="M537.2,48.7c0.6,0.1,1.1,0.2,1.6,0.5s0.9,0.6,1.3,1.1c0.3,0.4,0.6,0.9,0.7,1.5c0.1,0.5,0.2,1.1,0.1,1.7
				c-0.1,1.1-0.7,2.1-1.6,2.8c-0.9,0.7-2,1-3.2,0.9c-0.6-0.1-1.1-0.2-1.6-0.5s-0.9-0.6-1.3-1.1c-0.3-0.4-0.6-0.9-0.7-1.5
				c-0.1-0.5-0.2-1.1-0.1-1.7c0.1-1.1,0.7-2.1,1.6-2.8C535,48.9,536.1,48.6,537.2,48.7z"/>
			
				<radialGradient id="SVGID_45_" cx="-20.749" cy="-25.8712" r="1" gradientTransform="matrix(0.2785 -2.2025 2.1751 0.275 613.3187 47.4664)" gradientUnits="userSpaceOnUse">
				<stop  offset="0" style="stop-color:#FFFFFF"/>
				<stop  offset="9.000000e-02" style="stop-color:#E7E7E7"/>
				<stop  offset="0.23" style="stop-color:#BBBABA"/>
				<stop  offset="0.36" style="stop-color:#A4A3A3"/>
				<stop  offset="0.5" style="stop-color:#FFFFFF"/>
				<stop  offset="0.63" style="stop-color:#504F4E"/>
				<stop  offset="0.76" style="stop-color:#120B00"/>
				<stop  offset="0.89" style="stop-color:#040300"/>
				<stop  offset="1" style="stop-color:#000000"/>
			</radialGradient>
			<path class="st63" d="M551.5,83.8c0.3,0,0.6,0.1,0.8,0.3c0.3,0.1,0.5,0.3,0.6,0.6c0.2,0.2,0.3,0.5,0.4,0.8
				c0.1,0.3,0.1,0.6,0.1,0.9c-0.1,0.6-0.4,1.1-0.8,1.5c-0.5,0.4-1,0.5-1.6,0.5c-0.3,0-0.6-0.1-0.8-0.3c-0.3-0.1-0.5-0.3-0.6-0.6
				c-0.2-0.2-0.3-0.5-0.4-0.8c-0.1-0.3-0.1-0.6-0.1-0.9c0.1-0.6,0.4-1.1,0.8-1.5S550.9,83.7,551.5,83.8z"/>
			
				<radialGradient id="SVGID_46_" cx="-28.1787" cy="-27.6739" r="1" gradientTransform="matrix(0.2603 -2.0592 2.0336 0.2571 673.481 26.6481)" gradientUnits="userSpaceOnUse">
				<stop  offset="0" style="stop-color:#FFFFFF"/>
				<stop  offset="9.000000e-02" style="stop-color:#E7E7E7"/>
				<stop  offset="0.23" style="stop-color:#BBBABA"/>
				<stop  offset="0.36" style="stop-color:#A4A3A3"/>
				<stop  offset="0.5" style="stop-color:#FFFFFF"/>
				<stop  offset="0.63" style="stop-color:#504F4E"/>
				<stop  offset="0.76" style="stop-color:#120B00"/>
				<stop  offset="0.89" style="stop-color:#040300"/>
				<stop  offset="1" style="stop-color:#000000"/>
			</radialGradient>
			<path class="st64" d="M610.2,75.4c0.3,0,0.5,0.1,0.8,0.3c0.2,0.1,0.4,0.3,0.6,0.5c0.2,0.2,0.3,0.5,0.4,0.7
				c0.1,0.3,0.1,0.5,0.1,0.8c-0.1,0.5-0.3,1-0.8,1.4c-0.4,0.3-1,0.5-1.5,0.4c-0.3,0-0.5-0.1-0.8-0.3c-0.2-0.1-0.4-0.3-0.6-0.5
				c-0.2-0.2-0.3-0.5-0.4-0.7c-0.1-0.3-0.1-0.5-0.1-0.8c0.1-0.5,0.3-1,0.8-1.4C609.1,75.5,609.6,75.4,610.2,75.4z"/>
			
				<radialGradient id="SVGID_47_" cx="-28.1787" cy="-27.6739" r="1" gradientTransform="matrix(0.2603 -2.0592 2.0336 0.2571 662.594 51.0552)" gradientUnits="userSpaceOnUse">
				<stop  offset="0" style="stop-color:#FFFFFF"/>
				<stop  offset="9.000000e-02" style="stop-color:#E7E7E7"/>
				<stop  offset="0.23" style="stop-color:#BBBABA"/>
				<stop  offset="0.36" style="stop-color:#A4A3A3"/>
				<stop  offset="0.5" style="stop-color:#FFFFFF"/>
				<stop  offset="0.63" style="stop-color:#504F4E"/>
				<stop  offset="0.76" style="stop-color:#120B00"/>
				<stop  offset="0.89" style="stop-color:#040300"/>
				<stop  offset="1" style="stop-color:#000000"/>
			</radialGradient>
			<path class="st65" d="M599.2,99.8c0.3,0,0.5,0.1,0.8,0.3c0.2,0.1,0.4,0.3,0.6,0.5c0.2,0.2,0.3,0.5,0.4,0.7c0.1,0.3,0.1,0.5,0,0.8
				c-0.1,0.5-0.3,1-0.8,1.4s-1,0.5-1.5,0.4c-0.3,0-0.5-0.1-0.8-0.3c-0.2-0.1-0.4-0.3-0.6-0.5c-0.2-0.2-0.3-0.5-0.4-0.7
				c-0.1-0.3-0.1-0.5-0.1-0.8c0.1-0.5,0.3-1,0.8-1.4C598.1,99.9,598.7,99.7,599.2,99.8z"/>
		</g>
	</g>
</g>
<g>
	<g>
		<g>
			<path class="st66" d="M352.9,275.2h147.9c18,0,28.2-20.5,17.4-34.9l-38.8-51.6c-11-14.7-28.3-23.3-46.7-23.3H284.9
				c-18,0-28.2,20.5-17.4,34.9l38.8,51.6C317.2,266.5,334.5,275.2,352.9,275.2z"/>
			<path class="st66" d="M138.8,358.5h147.9c18,0,28.2-20.5,17.4-34.9L265.3,272c-11-14.7-28.3-23.3-46.7-23.3H70.8
				c-18,0-28.2,20.5-17.4,34.9l38.8,51.6C103.1,349.8,120.4,358.5,138.8,358.5z"/>
			<path class="st66" d="M397.3,222.8h147.9c18,0,28.2-20.5,17.4-34.9l-38.8-51.6c-11-14.7-28.3-23.3-46.7-23.3H329.3
				c-18,0-28.2,20.5-17.4,34.9l38.8,51.6C361.7,214.1,379,222.8,397.3,222.8z"/>
		</g>
		<g>
			<path class="st66" d="M100.8,191.6c-33.3-12.4-34.7-62.1,0.9-101c30.5-33.3,68.2-34.7,84.5-12.4c13.3,18.2,9.8,49.7-7.1,75.4
				C160.4,182.1,126.6,201.2,100.8,191.6z"/>
			<g>
				<g>
					<defs>
						<path id="SVGID_48_" d="M138.6,141.4c-5.1-3.6-4.7-12.6,1-19.9c5.5-7,13.5-9.2,17.9-5.1c4.1,3.8,3.5,12-1.3,18.6
							C151.3,141.8,143.4,144.8,138.6,141.4z"/>
					</defs>
					<clipPath id="SVGID_49_">
						<use xlink:href="#SVGID_48_"  style="overflow:visible;"/>
					</clipPath>
					<g class="st67">
						<path class="st24" d="M145.8,144.9l18-24.5c0.3-0.3,0.3-0.8,0.1-1l0,0c-0.2-0.2-0.6-0.1-0.8,0.3L145,144.3
							c-0.3,0.4-0.3,0.8-0.1,1l0,0C145.1,145.4,145.5,145.3,145.8,144.9z"/>
						<path class="st24" d="M148.2,146.6l17.7-24.3c0.2-0.3,0.3-0.8,0.1-1l0,0c-0.2-0.2-0.6-0.1-0.8,0.3L147.4,146
							c-0.3,0.4-0.3,0.8-0.1,1l0,0C147.5,147.1,147.9,146.9,148.2,146.6z"/>
						<path class="st24" d="M159.8,116.6l-18.9,25.3c-0.3,0.4-0.7,0.6-1,0.4l0,0c-0.3-0.2-0.2-0.7,0.1-1l19-25.4
							c0.3-0.4,0.7-0.5,0.9-0.3l0,0C160.1,115.8,160.1,116.3,159.8,116.6z"/>
						<path class="st24" d="M161.9,118.6l-18.6,25.1c-0.3,0.4-0.7,0.6-1,0.4l0,0c-0.3-0.2-0.2-0.6,0.1-1l18.7-25.1
							c0.3-0.3,0.6-0.5,0.9-0.3l0,0C162.2,117.8,162.2,118.2,161.9,118.6z"/>
						<path class="st24" d="M136,137.9l19.4-25.4c0.3-0.4,0.3-0.8,0.1-1l0,0c-0.2-0.2-0.6-0.1-0.9,0.2L135,137.2
							c-0.3,0.4-0.3,0.9,0,1.1l0,0C135.2,138.5,135.7,138.3,136,137.9z"/>
						<path class="st24" d="M138.6,139.7l19-25.2c0.3-0.4,0.3-0.8,0.1-1l0,0c-0.2-0.2-0.6-0.1-0.9,0.2L137.6,139
							c-0.3,0.4-0.3,0.9-0.1,1.1l0,0C137.9,140.3,138.3,140.1,138.6,139.7z"/>
						<path class="st24" d="M151,108.3l-20.4,26.2c-0.3,0.4-0.8,0.6-1.1,0.4l0,0c-0.3-0.2-0.3-0.7,0-1.1l20.6-26.3
							c0.3-0.4,0.7-0.5,1-0.2l0,0C151.3,107.5,151.3,108,151,108.3z"/>
						<path class="st24" d="M153.3,110.5l-20,26c-0.3,0.4-0.8,0.6-1.1,0.4l0,0c-0.3-0.2-0.3-0.7,0-1.1l20.2-26.1
							c0.3-0.4,0.7-0.5,0.9-0.2l0,0C153.6,109.7,153.6,110.2,153.3,110.5z"/>
					</g>
				</g>
			</g>
			<path class="st68" d="M109.1,180.5c-25.8-11.2-26.2-51.2,1.5-82.6c24.4-27.7,55.9-30.5,70-12.4c11.9,15.2,9.1,42.5-5.7,64.7
				C158.7,174.5,130,189.6,109.1,180.5z"/>
			<path class="st24" d="M76.9,86.7l16.4-17c1.1-1.1,3-0.7,3.1,0.7l2.2,16.5c0.1,1.1-0.9,2.2-2,2.2l-18.4,0.5
				C76.4,89.6,75.7,87.9,76.9,86.7z"/>
			<path class="st24" d="M190,154.2l-7.9,12.2c-0.6,0.9-1.4,1-1.4,0.2l-0.2-9.6c0-0.7,0.5-1.5,1.1-1.7l8.1-2.6
				C190.4,152.5,190.6,153.4,190,154.2z"/>
			<g>
				<path class="st69" d="M166,143.5c10.9-15.7,12.7-35.2,3.6-45.3c-10.3-11.4-31.2-7.9-46.6,10.4c-16.6,19.8-17,45-1.7,53.4"/>
				<path class="st24" d="M168,140.7c0.9,0.7,0.7,2.6-0.3,4.1c-1.1,1.5-2.7,2.2-3.6,1.5c-0.9-0.7-0.8-2.6,0.3-4.2
					C165.5,140.6,167.1,139.9,168,140.7z"/>
				<path class="st24" d="M123.9,158.6c1.3,0.8,1.3,2.9-0.2,4.8c-1.4,1.9-3.7,2.9-5.1,2.2s-1.3-2.9,0.1-4.9
					C120.3,158.7,122.6,157.8,123.9,158.6z"/>
			</g>
		</g>
		<g>
			<path class="st70" d="M520.9,206L520.9,206c1.6,0,2.8-1.3,2.8-2.8v-59.5c0-1.6-1.3-2.8-2.8-2.8l0,0c-1.6,0-2.8,1.3-2.8,2.8v59.5
				C518.1,204.7,519.4,206,520.9,206z"/>
			<path class="st70" d="M508.4,206L508.4,206c1.6,0,2.8-1.3,2.8-2.8V178c0-1.6-1.3-2.8-2.8-2.8l0,0c-1.6,0-2.8,1.3-2.8,2.8v25.2
				C505.6,204.7,506.9,206,508.4,206z"/>
			<path class="st70" d="M496.6,206L496.6,206c1.6,0,2.8-1.3,2.8-2.8v-35.5c0-1.6-1.3-2.8-2.8-2.8l0,0c-1.6,0-2.8,1.3-2.8,2.8v35.5
				C493.8,204.7,495.1,206,496.6,206z"/>
		</g>
		<g>
			<path class="st24" d="M236.2,218.7h12.4c0.8,0,1.5-0.7,1.5-1.5v-12.4c0-0.8-0.7-1.5-1.5-1.5h-12.4c-0.8,0-1.5,0.7-1.5,1.5v12.4
				C234.7,218.1,235.4,218.7,236.2,218.7z"/>
			<path class="st24" d="M221.4,193.1h5.2c0.3,0,0.6-0.3,0.6-0.6v-5.2c0-0.3-0.3-0.6-0.6-0.6h-5.2c-0.3,0-0.6,0.3-0.6,0.6v5.2
				C220.8,192.8,221.1,193.1,221.4,193.1z"/>
		</g>
		<g>
			<path class="st24" d="M140.8,410.4v14.4c0,1-1.2,1.6-2,1l-9.4-7.2c-0.6-0.5-0.6-1.5,0-1.9l9.4-7.2
				C139.6,408.8,140.8,409.4,140.8,410.4z"/>
			<path class="st24" d="M128.1,410.4v14.4c0,1-1.2,1.6-2,1l-9.4-7.2c-0.6-0.5-0.6-1.5,0-1.9l9.4-7.2
				C126.9,408.8,128.1,409.4,128.1,410.4z"/>
		</g>
		<g>
			<path class="st24" d="M477.6,68.9v14.4c0,1-1.2,1.6-2,1l-9.4-7.2c-0.6-0.5-0.6-1.5,0-1.9l9.4-7.2
				C476.5,67.3,477.6,67.9,477.6,68.9z"/>
			<path class="st24" d="M464.9,68.9v14.4c0,1-1.2,1.6-2,1l-9.4-7.2c-0.6-0.5-0.6-1.5,0-1.9l9.4-7.2
				C463.8,67.3,464.9,67.9,464.9,68.9z"/>
		</g>
	</g>
	<g>
		<g>
			<defs>
				<rect id="SVGID_50_" x="77.7" y="54" width="583" height="495"/>
			</defs>
			<clipPath id="SVGID_51_">
				<use xlink:href="#SVGID_50_"  style="overflow:visible;"/>
			</clipPath>
			<g class="st71">
				<g>
					<g>
						<g>
							<path id="XMLID_00000039131846594663645370000007177374994563641985_" class="st72" d="M202.8,378.2L202.8,378.2
								c-15.1,3.9-30.6-5.1-34.6-20.3l-23.1-112.3l44.8-10.2L223,343.5C227.1,358.8,218,374.3,202.8,378.2z"/>
						</g>
						<g>
							<defs>
								<path id="SVGID_52_" d="M202.8,378.2L202.8,378.2c-15.1,3.9-30.6-5.1-34.6-20.3l-23.1-112.3l44.8-10.2L223,343.5
									C227.1,358.8,218,374.3,202.8,378.2z"/>
							</defs>
							<clipPath id="SVGID_53_">
								<use xlink:href="#SVGID_52_"  style="overflow:visible;"/>
							</clipPath>
							<path class="st73" d="M175.2,350.6l-29.3,5.9c-3.3,0.7-6.5-1.5-7.1-4.7l-13.1-65.3c-0.7-3.3,1.5-6.5,4.7-7.1l29.3-5.9
								c3.3-0.7,6.5,1.5,7.1,4.7l13.1,65.3C180.6,346.7,178.5,349.9,175.2,350.6z"/>
						</g>
						<g>
							<defs>
								<path id="SVGID_54_" d="M202.8,378.2L202.8,378.2c-15.1,3.9-30.6-5.1-34.6-20.3l-23.1-112.3l44.8-10.2L223,343.5
									C227.1,358.8,218,374.3,202.8,378.2z"/>
							</defs>
							<clipPath id="SVGID_55_">
								<use xlink:href="#SVGID_54_"  style="overflow:visible;"/>
							</clipPath>
							<path class="st74" d="M171,347.2l-22,4.4c-2.4,0.5-4.8-1.1-5.3-3.5l-9.8-48.8c-0.5-2.4,1.1-4.8,3.5-5.3l22-4.4
								c2.4-0.5,4.8,1.1,5.3,3.5l9.8,48.8C175,344.4,173.4,346.7,171,347.2z"/>
						</g>
						<g>
							<defs>
								<path id="SVGID_56_" d="M202.8,378.2L202.8,378.2c-15.1,3.9-30.6-5.1-34.6-20.3l-23.1-112.3l44.8-10.2L223,343.5
									C227.1,358.8,218,374.3,202.8,378.2z"/>
							</defs>
							<clipPath id="SVGID_57_">
								<use xlink:href="#SVGID_56_"  style="overflow:visible;"/>
							</clipPath>
							<path class="st75" d="M178.1,300.8c-0.2,0.9,0.4,1.7,1.3,1.9c0.9,0.2,1.7-0.4,1.9-1.3s-0.4-1.7-1.3-1.9
								C179.1,299.3,178.2,299.9,178.1,300.8z"/>
						</g>
						<g>
							<defs>
								<path id="SVGID_58_" d="M202.8,378.2L202.8,378.2c-15.1,3.9-30.6-5.1-34.6-20.3l-23.1-112.3l44.8-10.2L223,343.5
									C227.1,358.8,218,374.3,202.8,378.2z"/>
							</defs>
							<clipPath id="SVGID_59_">
								<use xlink:href="#SVGID_58_"  style="overflow:visible;"/>
							</clipPath>
							<path class="st76" d="M179.5,309.1c-0.2,0.9,0.4,1.7,1.3,1.9c0.9,0.2,1.7-0.4,1.9-1.3s-0.4-1.7-1.3-1.9
								C180.5,307.7,179.7,308.2,179.5,309.1z"/>
						</g>
					</g>
					<path class="st77" d="M142.2,249.6c-2.9,15.4,7.3,30.1,22.6,33c15.4,2.9,30.1-7.3,33-22.6c2.9-15.4-7.3-30.1-22.6-33
						C159.8,224.2,145.1,234.3,142.2,249.6z"/>
					<path class="st78" d="M265.7,315.5l4.2,9.2c5.3,11.7,0.2,25.5-11.5,30.8l-33.3,15.2c-14.2,6.5-31,0.2-37.5-14l0,0
						c-6.5-14.2-0.2-31,14-37.5l33.3-15.2C246.5,298.6,260.4,303.8,265.7,315.5z"/>
					<g>
						<path class="st79" d="M128.4,225.2c-3.6,19.4,9.2,38.2,28.7,41.8c19.4,3.6,38.2-9.2,41.8-28.7c3.6-19.4-9.2-38.2-28.7-41.8
							C150.7,193,132,205.8,128.4,225.2z"/>
						<path class="st78" d="M136.7,215.5c-1.2,6.3,3,12.4,9.3,13.6c6.3,1.2,12.4-3,13.6-9.3s-3-12.4-9.3-13.6
							C144,204.9,137.9,209.1,136.7,215.5z"/>
						<path class="st78" d="M141.8,208.9l15.5,2.9c4.4,0.8,8.5-2.1,9.3-6.4l0,0c0.8-4.4-2.1-8.5-6.4-9.3l-15.5-2.9
							c-4.4-0.8-8.5,2.1-9.3,6.4l0,0C134.6,203.9,137.4,208.1,141.8,208.9z"/>
						<path class="st72" d="M155.2,217l-9.5-19.7c-1.9-4-6.7-5.7-10.7-3.7l0,0c-4,1.9-5.7,6.7-3.7,10.7l9.5,19.7
							c1.9,4,6.7,5.7,10.7,3.7l0,0C155.5,225.7,157.1,220.9,155.2,217z"/>
						<path class="st72" d="M148.7,230l-12.4-18c-2.5-3.6-7.5-4.6-11.1-2.1l0,0c-3.6,2.5-4.6,7.5-2.1,11.1l12.4,18
							c2.5,3.6,7.5,4.6,11.1,2.1l0,0C150.3,238.6,151.2,233.6,148.7,230z"/>
						<path class="st72" d="M142.9,240.7l-21.1-21.2l0,0c-6.3,6.2-6.3,16.4-0.1,22.7l9.8,9.8c3.1,3.1,8.2,3.2,11.3,0l0,0
							C146,248.9,146,243.8,142.9,240.7z"/>
						<path class="st72" d="M177.1,215.2c-6,2.3-12.7-0.8-14.7-6.9L145.3,158c-2.4-7,0.1-14.9,6.3-20.2l0,0c2.8-2.5,7.3-1.7,8.5,1.4
							l23.6,61.4C185.9,206.4,182.9,212.9,177.1,215.2L177.1,215.2z"/>
						<circle class="st78" cx="194.4" cy="221.3" r="11.7"/>
						<path class="st72" d="M206.2,190.5L189,213c-3.4,4.4-2.5,10.8,1.9,14.2l0.1,0.1c4.4,3.4,10.8,2.5,14.2-1.9l13.9-19.6
							c3.3-4.7,3.1-11.1-0.6-15.6l0,0C215.2,186.4,209.2,186.5,206.2,190.5z"/>
					</g>
					<path class="st66" d="M260.4,362.7l46.7-20.4l-29.9-68.7L230.5,294c-19,8.3-27.6,30.3-19.4,49.3l0,0
						C219.4,362.3,241.4,371,260.4,362.7z"/>
					<g>
						<g>
							<path id="XMLID_00000052804013820136126720000002158215538873544330_" class="st24" d="M275.5,361.5l52.5-22.9l-33.7-77.2
								l-52.5,22.9c-21.3,9.3-31.1,34.1-21.8,55.5l0,0C229.3,361.1,254.2,370.8,275.5,361.5z"/>
						</g>
						<g>
							<defs>
								<path id="SVGID_60_" d="M295.7,365.8l28.6-49.6l-73-42l-28.6,49.6c-11.6,20.1-4.7,45.9,15.5,57.6l0,0
									C258.3,393,284.1,386,295.7,365.8z"/>
							</defs>
							<clipPath id="SVGID_61_">
								<use xlink:href="#SVGID_60_"  style="overflow:visible;"/>
							</clipPath>
							<ellipse class="st80" cx="292.1" cy="333" rx="56.7" ry="56.7"/>
						</g>
					</g>
					<path class="st66" d="M199.6,356.4l14.8-6.7c2.8-1.3,4-4.6,2.8-7.4l0,0c-1.3-2.8-4.6-4-7.4-2.8l-14.8,6.7
						c-2.8,1.3-4,4.6-2.8,7.4l0,0C193.5,356.5,196.8,357.7,199.6,356.4z"/>
					<path class="st77" d="M202.2,352l7-3.2c1.3-0.6,1.9-2.2,1.3-3.5l0,0c-0.6-1.3-2.2-1.9-3.5-1.3l-7,3.2c-1.3,0.6-1.9,2.2-1.3,3.5
						l0,0C199.3,352,200.9,352.6,202.2,352z"/>
				</g>
				
					<ellipse transform="matrix(0.9668 -0.2555 0.2555 0.9668 -91.8542 111.1273)" class="st66" cx="381.8" cy="409.1" rx="282.7" ry="58.7"/>
				
					<ellipse transform="matrix(0.9668 -0.2555 0.2555 0.9668 -95.3802 112.5727)" class="st81" cx="385.6" cy="423.4" rx="211.5" ry="43.9"/>
				
					<ellipse transform="matrix(0.9668 -0.2555 0.2555 0.9668 -97.1581 113.2951)" class="st82" cx="387.5" cy="430.6" rx="175.5" ry="36.4"/>
				
					<ellipse transform="matrix(0.9668 -0.2555 0.2555 0.9668 -95.3802 112.5727)" class="st66" cx="385.6" cy="423.4" rx="247.2" ry="51.3"/>
				<g>
					<g>
						<path id="XMLID_00000132768699865668830900000004987203692933868957_" class="st24" d="M298.4,246.6l96.1-28.1
							c43.6-12.7,88.8,17.5,95.4,64l20.9,145.2c-64.2,26.7-134.5,46.7-200.5,55.8L251.9,351C233.2,308.4,255.1,259.3,298.4,246.6z"
							/>
					</g>
					<g>
						<defs>
							<path id="SVGID_62_" d="M293.9,275.4l90.7-42.4c41.2-19.2,90.4,3.8,104,48.8l42.7,140.3c-59.4,36.1-125.9,66.6-189.7,85.6
								l-77.8-122.1C238.8,346.4,253,294.6,293.9,275.4z"/>
						</defs>
						<clipPath id="SVGID_63_">
							<use xlink:href="#SVGID_62_"  style="overflow:visible;"/>
						</clipPath>
						<ellipse class="st83" cx="485" cy="290.7" rx="58.5" ry="58.5"/>
					</g>
				</g>
				<g>
					<g>
						
							<ellipse transform="matrix(1.041206e-02 -0.9999 0.9999 1.041206e-02 145.933 457.5639)" class="st78" cx="304.1" cy="155.1" rx="21.5" ry="20.5"/>
					</g>
					<g>
						
							<ellipse transform="matrix(1.038495e-02 -0.9999 0.9999 1.038495e-02 243.4305 558.1442)" class="st78" cx="403.7" cy="156.1" rx="21.5" ry="20.5"/>
					</g>
					<g>
						<g>
							<path id="XMLID_00000134240553150806958840000005637641814476670380_" class="st72" d="M383,255.3l2.9-54.6l-62.7-3.3
								l-2.9,54.6c-0.7,14.1,12.7,26.2,30,27.1l0,0C367.7,280,382.3,269.4,383,255.3z"/>
						</g>
						<g>
							<defs>
								<path id="SVGID_64_" d="M387.9,171.8l-54.4-5.7l-6.6,62.4l54.4,5.7c14,1.4,26.8-11.3,28.6-28.5l0,0
									C411.7,188.4,401.9,173.2,387.9,171.8z"/>
							</defs>
							<clipPath id="SVGID_65_">
								<use xlink:href="#SVGID_64_"  style="overflow:visible;"/>
							</clipPath>
							
								<ellipse transform="matrix(5.217294e-02 -0.9986 0.9986 5.217294e-02 112.9246 541.0165)" class="st84" cx="341.5" cy="211" rx="19.1" ry="31.2"/>
						</g>
					</g>
					<path class="st72" d="M409.5,149.9c-0.4,39.7-17.3,72.1-56.6,72.3c-38.9,0.2-55.1-33.2-55.1-73.5c0-39.7,24.2-71.6,56.6-71.2
						C386.8,77.8,409.9,110.2,409.5,149.9z"/>
					<path class="st82" d="M396,133.4c-6.1-14-29.1-15.4-35.3-4.4C360.7,129,378.9,128.5,396,133.4z"/>
					<path class="st82" d="M310.5,128.4c3.9-12.6,27.4-14.1,31.4-2.1C341.9,126.3,325.2,121.2,310.5,128.4z"/>
					<g>
						<g>
							<path id="XMLID_00000119086229338259543350000010562252854741354627_" class="st85" d="M374,180.4
								c-3.4-4.2-41.1-6.6-43.2-3.3c-2.1,3.4,6.3,23.8,22.1,22.2C368.6,197.6,377.3,184.6,374,180.4z"/>
						</g>
						<g>
							<defs>
								<path id="SVGID_66_" d="M374,180.4c-3.4-4.2-41.1-6.6-43.2-3.3c-2.1,3.4,6.3,23.8,22.1,22.2
									C368.6,197.6,377.3,184.6,374,180.4z"/>
							</defs>
							<clipPath id="SVGID_67_">
								<use xlink:href="#SVGID_66_"  style="overflow:visible;"/>
							</clipPath>
							<path class="st86" d="M334.6,194.7c-0.6,4.7,6.4,9.5,15.6,10.7s17.2-1.7,17.8-6.4c0.6-4.7-6.4-9.5-15.6-10.7
								C343.2,187.2,335.2,190,334.6,194.7z"/>
						</g>
						<g>
							<defs>
								<path id="SVGID_68_" d="M374,180.4c-3.4-4.2-41.1-6.6-43.2-3.3c-2.1,3.4,6.3,23.8,22.1,22.2
									C368.6,197.6,377.3,184.6,374,180.4z"/>
							</defs>
							<clipPath id="SVGID_69_">
								<use xlink:href="#SVGID_68_"  style="overflow:visible;"/>
							</clipPath>
							<path class="st87" d="M332.1,176.2c-0.4,2.8,9.6,5.6,19.1,6.9c9.5,1.2,18.7-1.8,19-4.7c0.4-2.8-8.2-4.3-17.7-5.6
								C343,171.6,332.4,173.4,332.1,176.2z"/>
						</g>
					</g>
					<path class="st78" d="M352.2,157.4l-0.1,10.4c0,2.2-1.8,4-4.1,4l0,0c-2.8,0-4.6-3.1-3.3-5.5c1.7-3.1,3.8-6.3,6.2-9.3
						C351.4,156.5,352.2,156.8,352.2,157.4z"/>
					<g>
						<g>
							<path class="st88" d="M392.8,147c0,0-1.8-5.7-7.6-8.3c-7.1-3.2-18.9-2.4-24.6,11.8L392.8,147z"/>
							<g>
								<g>
									<g>
										<path id="XMLID_00000033369059506835883150000010873441605320739519_" class="st24" d="M360,153.4c0,0,0.4-5.4,4.4-9
											c5.7-5.1,16.9-7.9,28.4,2.5C392.8,147,381.1,164.2,360,153.4z"/>
									</g>
									<g>
										<defs>
											<path id="SVGID_70_" d="M360,153.4c0,0,0.4-5.4,4.4-9c5.7-5.1,16.9-7.9,28.4,2.5C392.8,147,381.1,164.2,360,153.4z"/>
										</defs>
										<clipPath id="SVGID_71_">
											<use xlink:href="#SVGID_70_"  style="overflow:visible;"/>
										</clipPath>
										<path class="st89" d="M385.7,147.2c-0.9,5-5.6,8.3-10.6,7.5c-4.9-0.9-8.2-5.7-7.3-10.7c0.9-5,5.6-8.3,10.6-7.5
											C383.3,137.4,386.6,142.1,385.7,147.2z"/>
									</g>
								</g>
							</g>
						</g>
						<path class="st90" d="M369,145.8c0,1.5,1.2,2.8,2.7,2.8s2.8-1.2,2.8-2.7s-1.2-2.8-2.7-2.8S369,144.3,369,145.8z"/>
						<path class="st90" d="M375.8,150.2c0,0.7,0.5,1.2,1.2,1.2s1.2-0.5,1.2-1.2s-0.5-1.2-1.2-1.2S375.8,149.5,375.8,150.2z"/>
					</g>
					<g>
						<g>
							<path class="st88" d="M311.3,146.1c0,0,3.5-5.9,10.4-8.2c8.1-2.6,20-0.6,22.2,15.3L311.3,146.1z"/>
							<g>
								<g>
									<g>
										<path id="XMLID_00000085242712958291987470000016138781653927725220_" class="st24" d="M344,153.3c0,0-0.3-5.4-4.2-9.1
											c-5.6-5.2-16.8-8.2-28.4,2C311.3,146.1,322.7,163.5,344,153.3z"/>
									</g>
									<g>
										<defs>
											<path id="SVGID_72_" d="M344,153.3c0,0-0.3-5.4-4.2-9.1c-5.6-5.2-16.8-8.2-28.4,2C311.3,146.1,322.7,163.5,344,153.3z"/>
										</defs>
										<clipPath id="SVGID_73_">
											<use xlink:href="#SVGID_72_"  style="overflow:visible;"/>
										</clipPath>
										<path class="st91" d="M322.9,147.1c0.8,4.9,5.3,8.3,10.2,7.5c4.8-0.8,8.1-5.4,7.4-10.3c-0.8-4.9-5.3-8.3-10.2-7.5
											C325.4,137.5,322.1,142.2,322.9,147.1z"/>
									</g>
								</g>
							</g>
						</g>
						<path class="st90" d="M326,145.3c0,1.5,1.2,2.8,2.7,2.8s2.8-1.2,2.8-2.7s-1.2-2.8-2.7-2.8S326,143.8,326,145.3z"/>
						<path class="st90" d="M332.8,149.7c0,0.7,0.5,1.2,1.2,1.2s1.2-0.5,1.2-1.2s-0.5-1.2-1.2-1.2
							C333.4,148.5,332.8,149.1,332.8,149.7z"/>
					</g>
					<path d="M308.8,92.2c0,0-11.8,5.8-8.8,36c0,0,5.9-19.3,20-27.8L308.8,92.2z"/>
					<path d="M357.5,55.5c0,0-25.8-0.7-43.3,9.9c75.6-7.1,117.3,0,94.1,68.1c0,0-2.6-2.5-7.8-22.7c0,0-53.1,4.4-88.1-10.9
						C312.5,100,272.7,46.5,357.5,55.5z"/>
				</g>
				<g>
					
						<ellipse transform="matrix(0.7071 -0.7071 0.7071 0.7071 -60.7453 418.8257)" class="st24" cx="475.2" cy="282.7" rx="52.1" ry="52.1"/>
					<path class="st78" d="M527.2,291.1c-0.2,19.8-16.4,35.7-36.2,35.5c-19.8-0.2-35.7-16.4-35.5-36.2c0.2-19.8,16.4-35.7,36.2-35.5
						C511.6,255.1,527.5,271.3,527.2,291.1z"/>
					<path class="st77" d="M521.7,285.5c-0.2,16.7-13.9,30.1-30.6,30c-16.7-0.2-30.1-13.9-30-30.6c0.2-16.7,13.9-30.1,30.6-30
						C508.5,255,521.9,268.7,521.7,285.5z"/>
					<g>
						<path class="st79" d="M459.9,312.4l78-34c4.2-1.8,6.2-6.8,4.3-11l-8.2-18.7c-1.8-4.2-6.8-6.2-11-4.3l-78,34
							c-4.2,1.8-6.2,6.8-4.3,11l8.2,18.7C450.8,312.4,455.7,314.3,459.9,312.4z"/>
						<path class="st78" d="M490.5,270.8L490.5,270.8c-5.4,2.4-11.7-0.1-14.1-5.5l-10-22.9c-2.4-5.4,0.1-11.7,5.5-14.1l0,0
							c5.4-2.4,11.7,0.1,14.1,5.5l10,22.9C498.4,262.2,495.9,268.5,490.5,270.8z"/>
						<path class="st72" d="M483.4,254.5L483.4,254.5c-5.4,2.4-11.7-0.1-14.1-5.5l-10-22.9c-2.4-5.4,0.1-11.7,5.5-14.1l0,0
							c5.4-2.4,11.7,0.1,14.1,5.5l10,22.9C491.2,245.9,488.8,252.2,483.4,254.5z"/>
						<path class="st78" d="M471.1,287.3L471.1,287.3c-5.4,2.4-11.7-0.1-14.1-5.5l-10-22.9c-2.4-5.4,0.1-11.7,5.5-14.1l0,0
							c5.4-2.4,11.7,0.1,14.1,5.5l10,22.9C479,278.7,476.5,285,471.1,287.3z"/>
						<path class="st72" d="M464,271L464,271c-5.4,2.4-11.7-0.1-14.1-5.5l-10-22.9c-2.4-5.4,0.1-11.7,5.5-14.1l0,0
							c5.4-2.4,11.7,0.1,14.1,5.5l10,22.9C471.9,262.4,469.4,268.7,464,271z"/>
						<path class="st78" d="M454.8,300.9L454.8,300.9c-5.4,2.4-11.7-0.1-14.1-5.5L434,280c-2.4-5.4,0.1-11.7,5.5-14.1l0,0
							c5.4-2.4,11.7,0.1,14.1,5.5l6.7,15.4C462.6,292.2,460.2,298.5,454.8,300.9z"/>
						<path class="st72" d="M454.6,285l-11.3,4.9c-2.3,1-4.9,0-5.9-2.3l-11.6-26.7c-1-2.3,0-4.9,2.3-5.9l11.3-4.9
							c2.3-1,4.9,0,5.9,2.3l11.6,26.7C457.9,281.3,456.9,284,454.6,285z"/>
						<path class="st78" d="M531.4,270.6L531.4,270.6c-5.6-1.9-8.6-7.9-6.8-13.5l5.3-15.9c1.9-5.6,7.9-8.6,13.5-6.8l0,0
							c5.6,1.9,8.6,7.9,6.8,13.5l-5.3,15.9C543.1,269.4,537,272.4,531.4,270.6z"/>
						<path class="st78" d="M515.5,265.3L515.5,265.3c-5.4,2.4-11.7-0.1-14.1-5.5l-7.9-18.1c-2.4-5.4,0.1-11.7,5.5-14.1l0,0
							c5.4-2.4,11.7,0.1,14.1,5.5l7.9,18.1C523.3,256.6,520.9,262.9,515.5,265.3z"/>
						<path class="st72" d="M512.7,244l-11,4.8c-2.4,1-5.1,0-6.2-2.4l-12.7-29.1c-1-2.4,0-5.1,2.4-6.2l11-4.8c2.4-1,5.1,0,6.2,2.4
							l12.7,29.1C516.2,240.2,515.1,243,512.7,244z"/>
					</g>
				</g>
				<g>
					<g class="st92">
						<g>
							<polygon class="st93" points="475.6,106.7 455.2,162.5 490,194.2 510.3,138.4 							"/>
						</g>
						<g>
							<polygon class="st25" points="490,194.2 538.7,194.5 559.1,138.7 510.3,138.4 							"/>
						</g>
						<g>
							<polygon class="st24" points="510.3,138.4 559.1,138.7 523.5,106.7 475.6,106.7 							"/>
						</g>
					</g>
				</g>
				<g>
					<ellipse class="st94" cx="372.8" cy="359.3" rx="45" ry="45"/>
					<polygon class="st24" points="358.3,365.7 369.5,348.3 388.5,356.5 384.9,344.5 365.9,336.3 354.7,353.6 					"/>
					<polygon class="st24" points="364.7,386.8 375.9,369.4 394.9,377.6 391.3,365.6 372.3,357.4 361.1,374.7 					"/>
				</g>
				<path class="st24" d="M451.8,172.4c-6.1,5.7-9,10.8-7.6,14.4c3.8,9.8,36.5,6.1,73.1-8.2c36.5-14.3,63-33.8,59.2-43.6
					c-1.9-4.8-10.7-6.3-23.4-5c20.9-3.8,35.8-2.6,38.6,4.3c4.5,11.5-26.8,34.5-69.9,51.4s-81.7,21.2-86.2,9.7
					C433.3,189.9,439.7,181.5,451.8,172.4z"/>
				<path class="st95" d="M308.5,92.2c-6.4-11.8-15.5-29,0.8-37.6c2-1.1,4.2-1.7,6.4-2.4C290,55.4,297.6,78.5,308.5,92.2L308.5,92.2
					z"/>
				<path class="st95" d="M325.5,55.2c-20.7,0.6-30.1,22.2-17.3,38.2l0.3-0.1c-7.8-17.3-1.4-32.5,17.1-37.7
					C325.6,55.5,325.5,55.2,325.5,55.2L325.5,55.2z"/>
				<g>
					<path class="st24" d="M299.3,133.1c-2.2-49.9,26-58.8,69.4-55.7c34.9,2.8,44.6,20.8,42.2,55.1l4,0.8
						c9.4-29.3-0.3-56.3-31.6-64.4c-27.4-6.7-71.8-5.7-84.9,24.2c-5.5,12.6-4.8,27-1.1,40l1.1-0.4L299.3,133.1z"/>
					<g>
						<g>
							<path class="st79" d="M409.1,180.6c9.1,0.1,21.5-12.9,21.7-29.1s-12-29.4-21.1-29.5C400.5,121.9,399.9,180.5,409.1,180.6z"/>
							<g>
								<g>
									<path id="XMLID_00000147903381585606031230000013556388908432150699_" class="st95" d="M415.8,180.7
										c9.1,0.1,21.5-12.9,21.7-29.1s-12-29.4-21.1-29.5C407.3,122,406.7,180.6,415.8,180.7z"/>
								</g>
								<g>
									<defs>
										<path id="SVGID_74_" d="M463,165c0.2-9.1-12.7-21.6-28.9-22c-16.2-0.4-29.5,11.7-29.7,20.8S462.8,174.1,463,165z"/>
									</defs>
									<clipPath id="SVGID_75_">
										<use xlink:href="#SVGID_74_"  style="overflow:visible;"/>
									</clipPath>
									
										<ellipse transform="matrix(1.040850e-02 -0.9999 0.9999 1.040850e-02 277.9786 578.8817)" class="st96" cx="431.5" cy="149" rx="23.7" ry="8"/>
								</g>
								<g>
									<defs>
										<path id="SVGID_76_" d="M469,162.7c0.2-9.1-12.7-21.6-28.9-22c-16.2-0.4-29.5,11.7-29.7,20.8
											C410.2,170.6,468.8,171.8,469,162.7z"/>
									</defs>
									<clipPath id="SVGID_77_">
										<use xlink:href="#SVGID_76_"  style="overflow:visible;"/>
									</clipPath>
									
										<ellipse transform="matrix(1.040411e-02 -0.9999 0.9999 1.040411e-02 283.9091 576.54)" class="st97" cx="433.2" cy="144.8" rx="23.4" ry="7.4"/>
								</g>
							</g>
						</g>
						<g>
							<path class="st79" d="M297,179.5c-9.1-0.1-21.3-13.3-21.1-29.5c0.2-16.2,12.6-29.2,21.7-29.1
								C306.8,121,306.2,179.6,297,179.5z"/>
							<g>
								<g>
									<path id="XMLID_00000164499062068233763880000016117829385156506039_" class="st95" d="M290.3,179.4
										c-9.1-0.1-21.3-13.3-21.1-29.5c0.2-16.2,12.6-29.2,21.7-29.1C300,120.9,299.4,179.5,290.3,179.4z"/>
								</g>
								<g>
									<defs>
										<path id="SVGID_78_" d="M290.3,179.4c-9.1-0.1-21.3-13.3-21.1-29.5c0.2-16.2,12.6-29.2,21.7-29.1
											C300,120.9,299.4,179.5,290.3,179.4z"/>
									</defs>
									<clipPath id="SVGID_79_">
										<use xlink:href="#SVGID_78_"  style="overflow:visible;"/>
									</clipPath>
									<path class="st98" d="M283.3,147.5c-0.1,13.1-3.8,23.7-8.3,23.6c-4.4,0-7.9-10.7-7.8-23.8s3.8-23.7,8.3-23.6
										C280,123.7,283.5,134.4,283.3,147.5z"/>
								</g>
								<g>
									<defs>
										<path id="SVGID_80_" d="M290.3,179.4c-9.1-0.1-21.3-13.3-21.1-29.5c0.2-16.2,12.6-29.2,21.7-29.1
											C300,120.9,299.4,179.5,290.3,179.4z"/>
									</defs>
									<clipPath id="SVGID_81_">
										<use xlink:href="#SVGID_80_"  style="overflow:visible;"/>
									</clipPath>
									<path class="st99" d="M281,143.2c-0.1,12.9-3.6,23.3-7.7,23.3s-7.3-10.5-7.2-23.4c0.1-12.9,3.6-23.3,7.7-23.3
										C277.9,119.9,281.1,130.3,281,143.2z"/>
								</g>
							</g>
						</g>
					</g>
				</g>
			</g>
		</g>
	</g>
</g>
</svg>
