<?xml version="1.0" encoding="utf-8"?>
<!-- Generator: Adobe Illustrator 24.2.1, SVG Export Plug-In . SVG Version: 6.00 Build 0)  -->
<svg version="1.1" id="Camada_1" xmlns="http://www.w3.org/2000/svg" xmlns:xlink="http://www.w3.org/1999/xlink" x="0px" y="0px"
	 viewBox="0 0 204 204" style="enable-background:new 0 0 204 204;" xml:space="preserve">
<style type="text/css">
	.st0{display:none;stroke:#FFFFFF;stroke-miterlimit:10;}
	.st1{fill:#4E7896;}
	.st2{fill:#F58219;}
</style>
<rect x="96.1" y="96.4" transform="matrix(0.9997 2.403803e-02 -2.403803e-02 0.9997 2.4634 -2.3986)" class="st0" width="9.8" height="9.8"/>
<path class="st1" d="M82.5,130.4c0,0-4.1,2.5,2.9,3.2c8.4,1.1,12.8,0.9,22.1-0.9c1.9,1.1,3.8,2.1,5.9,2.9
	C92.5,144.5,66.1,135,82.5,130.4L82.5,130.4z M79.8,118.8c0,0-4.5,3.4,2.5,4.1c9.1,0.9,16.2,1.1,28.5-1.4c1.2,1.2,2.7,2.1,4.3,2.7
	C90,131.6,61.8,124.9,79.8,118.8L79.8,118.8z M129,139.1c0,0,3,2.5-3.4,4.5c-11.9,3.6-50.1,4.6-60.8,0c-3.7-1.6,3.4-3.9,5.7-4.3
	c2.3-0.5,3.6-0.5,3.6-0.5c-4.1-2.9-27.3,5.9-11.8,8.4C104.9,154.1,140,144.1,129,139.1L129,139.1z M84.4,106.7c0,0-19.4,4.6-6.9,6.2
	c5.3,0.7,15.9,0.5,25.7-0.2c8-0.7,16-2.1,16-2.1s-2.9,1.2-4.8,2.5c-19.8,5.2-57.7,2.9-46.9-2.5C76.7,106.2,84.4,106.7,84.4,106.7
	L84.4,106.7z M119.1,126.1c20-10.3,10.7-20.3,4.3-19.1c-1.6,0.4-2.3,0.7-2.3,0.7s0.5-1.1,1.8-1.4c12.7-4.5,22.6,13.4-4.1,20.3
	C118.8,126.6,119,126.5,119.1,126.1L119.1,126.1z M86.4,154.3c19.2,1.2,48.6-0.7,49.4-9.8c0,0-1.4,3.6-15.9,6.2
	c-16.4,3-36.7,2.7-48.6,0.7C71.2,151.4,73.7,153.5,86.4,154.3L86.4,154.3z"/>
<path class="st2" d="M107.1,47.9c0,0,11,11.2-10.5,28.2c-17.3,13.7-3.9,21.6,0,30.5c-10.2-9.1-17.5-17.1-12.5-24.6
	C91.4,70.9,111.5,65.6,107.1,47.9z M101.4,99c5.2,5.9-1.4,11.2-1.4,11.2s13.2-6.8,7.1-15.1c-5.5-8-9.8-11.9,13.4-25.3
	C120.5,69.8,83.9,78.9,101.4,99z"/>
</svg>
