<?xml version="1.0" encoding="utf-8"?>
<!-- Generator: Adobe Illustrator 24.2.1, SVG Export Plug-In . SVG Version: 6.00 Build 0)  -->
<svg version="1.1" id="Camada_1" xmlns="http://www.w3.org/2000/svg" xmlns:xlink="http://www.w3.org/1999/xlink" x="0px" y="0px"
	 viewBox="0 0 204 204" style="enable-background:new 0 0 204 204;" xml:space="preserve">
<style type="text/css">
	.st0{display:none;stroke:#FFFFFF;stroke-miterlimit:10;}
	.st1{fill:#DD0031;}
	.st2{filter:url(#Adobe_OpacityMaskFilter);}
	.st3{fill-rule:evenodd;clip-rule:evenodd;fill:#FFFFFF;}
	.st4{mask:url(#mask-2_2_);fill-rule:evenodd;clip-rule:evenodd;fill:#C3002F;}
	.st5{fill:#FFFFFF;}
</style>
<rect x="96.1" y="96.4" transform="matrix(0.9997 2.403803e-02 -2.403803e-02 0.9997 2.4634 -2.3986)" class="st0" width="9.8" height="9.8"/>
<g>
	<polyline id="path-1_1_" class="st1" points="146.2,72.2 98.8,55.4 98.8,55.4 98.8,55.4 51.3,72.2 58.6,134.7 98.8,156.9 
		98.8,156.9 98.8,156.9 138.9,134.7 146.2,72.2 	"/>
	<defs>
		<filter id="Adobe_OpacityMaskFilter" filterUnits="userSpaceOnUse" x="98.8" y="55.4" width="47.4" height="101.5">
			<feColorMatrix  type="matrix" values="1 0 0 0 0  0 1 0 0 0  0 0 1 0 0  0 0 0 1 0"/>
		</filter>
	</defs>
	<mask maskUnits="userSpaceOnUse" x="98.8" y="55.4" width="47.4" height="101.5" id="mask-2_2_">
		<g class="st2">
			<polygon id="path-1_3_" class="st3" points="98.8,55.4 98.8,55.4 98.8,55.4 51.3,72.2 58.6,134.7 98.8,156.9 98.8,156.9 
				98.8,156.9 138.9,134.7 146.2,72.2 			"/>
		</g>
	</mask>
	<polyline id="Shape-path" class="st4" points="146.2,72.2 98.8,55.4 98.8,66.7 98.8,66.6 98.8,118 98.8,118 98.8,156.9 98.8,156.9 
		138.9,134.7 146.2,72.2 	"/>
	<g id="head" transform="translate(7.775680, 7.492928)">
		<polygon id="chick-right" class="st5" points="104.9,96 100.3,95 103.9,100.1 103.9,115.7 116,105.6 116,88.5 110.4,90.5 		"/>
		<polygon id="chick-left" class="st5" points="76.6,96 81.1,95 77.6,100.1 77.6,115.7 65.4,105.6 65.4,88.5 71,90.5 		"/>
		<polygon id="mask" class="st3" points="79,101 83.1,94.9 85.6,96.5 95.7,96.5 98.2,94.9 102.2,101 102.2,123.8 99.2,128.4 
			95.7,131.9 85.6,131.9 82.1,128.4 79,123.8 		"/>
		<polygon id="bottom-chick-right" class="st5" points="103.9,125.3 110.4,118.8 110.4,112.2 103.9,117.8 		"/>
		<polygon id="bottom-chick-left" class="st5" points="77.6,125.3 71,118.8 71,112.2 77.6,117.8 		"/>
		<path class="st3" d="M91.7,94.5V65.7h5.6l4,9.6l18.7-1.5l-3,12.6l-21.7,8.1H91.7z M89.7,65.7v28.8h-3l-21.7-8.1l-3-12.6l18.2,1.5
			l4-9.6H89.7z"/>
		<polygon id="ear-right" class="st5" points="102.4,73.8 113,72.8 105.9,65.7 98.8,65.7 		"/>
		<polygon id="ear-left" class="st5" points="79.1,73.8 68.5,72.8 75.6,65.7 82.6,65.7 		"/>
	</g>
</g>
</svg>
