<?xml version="1.0" encoding="utf-8"?>
<!-- Generator: Adobe Illustrator 24.2.1, SVG Export Plug-In . SVG Version: 6.00 Build 0)  -->
<svg version="1.1" id="Camada_1" xmlns="http://www.w3.org/2000/svg" xmlns:xlink="http://www.w3.org/1999/xlink" x="0px" y="0px"
	 viewBox="0 0 204 204" style="enable-background:new 0 0 204 204;" xml:space="preserve">
<style type="text/css">
	.st0{display:none;stroke:#FFFFFF;stroke-miterlimit:10;}
	.st1{fill:#68BD45;}
</style>
<rect x="96.1" y="96.4" transform="matrix(0.9997 2.403803e-02 -2.403803e-02 0.9997 2.4634 -2.3986)" class="st0" width="9.8" height="9.8"/>
<path class="st1" d="M138.7,62.3c-1.3,3.1-3,6.1-5,8.8C115.5,52.9,85.9,52.8,67.6,71s-18.4,47.8-0.1,66.1c0.3,0.3,0.6,0.6,1,0.9
	l1.7,1.5c19.7,16.6,49.2,14.1,65.9-5.6c6.4-7.6,10.2-16.9,10.9-26.8C148.1,95.3,144.6,80.2,138.7,62.3L138.7,62.3z M75,138.4
	c-1.4,1.7-3.9,2-5.6,0.6c-1.7-1.4-2-3.9-0.6-5.6s3.9-2,5.6-0.6c0,0,0,0,0,0C76.2,134.1,76.4,136.7,75,138.4z M138.5,124.4
	c-11.5,15.4-36.2,10.2-52,10.9c0,0-2.8,0.2-5.6,0.6c0,0,1.1-0.5,2.4-1c11.1-3.9,16.3-4.6,23.1-8.1c12.7-6.5,25.2-20.6,27.8-35.3
	c-4.8,14.1-19.5,26.3-32.8,31.2c-9.1,3.4-25.7,6.7-25.7,6.7l-0.7-0.4c-11.2-5.5-11.6-29.8,8.9-37.7c9-3.4,17.5-1.6,27.2-3.9
	c10.3-2.5,22.3-10.2,27.1-20.3C143.7,83.5,150.2,108.7,138.5,124.4L138.5,124.4z"/>
</svg>
